<?xml version="1.0" standalone="no"?>
<!DOCTYPE svg PUBLIC "-//W3C//DTD SVG 20010904//EN"
 "http://www.w3.org/TR/2001/REC-SVG-20010904/DTD/svg10.dtd">
<svg version="1.0" xmlns="http://www.w3.org/2000/svg"
 width="944.000000pt" height="590.000000pt" viewBox="0 0 944.000000 590.000000"
 preserveAspectRatio="xMidYMid meet">

<g transform="translate(0.000000,590.000000) scale(0.100000,-0.100000)"
fill="#000000" stroke="none">
<path d="M0 2950 l0 -2950 4720 0 4720 0 0 44 c0 25 -4 48 -10 51 -5 3 -10 21
-10 40 0 18 -6 36 -12 38 -10 4 -10 6 0 6 6 1 12 8 12 16 0 8 5 15 10 15 6 0
10 32 10 75 0 72 -1 75 -23 75 -29 0 -47 18 -47 46 0 28 24 48 50 41 20 -5 20
-1 20 529 0 349 -3 534 -10 534 -5 0 -10 20 -10 45 0 25 5 45 10 45 6 0 10 35
10 85 0 50 -4 85 -10 85 -5 0 -10 15 -10 34 0 60 -35 56 -43 -4 -3 -31 -4 -29
-5 11 l-2 47 35 -2 35 -1 0 929 c0 872 -1 930 -17 943 -17 14 -17 14 0 9 21
-7 24 19 2 28 -19 7 -19 35 0 42 13 5 15 131 15 1050 l0 1044 -4720 0 -4720 0
0 -2950z m217 2856 c5 -7 16 -16 27 -19 10 -4 16 -13 13 -21 -3 -7 -1 -18 4
-23 4 -4 6 -26 2 -47 -4 -27 -12 -40 -29 -47 -13 -4 -24 -13 -24 -18 0 -12
-80 -8 -88 5 -4 6 -15 13 -24 17 -10 3 -18 15 -18 25 0 10 -5 23 -12 30 -9 9
-9 15 0 24 7 7 12 22 12 35 0 13 6 23 14 23 7 0 19 6 25 14 14 17 88 19 98 2z
m4099 -6 c36 -14 25 -22 -35 -24 -54 -1 -66 9 -28 24 29 12 31 12 63 0z m630
0 c36 -14 25 -22 -35 -24 -54 -1 -66 9 -28 24 29 12 31 12 63 0z m-3896 -47
c0 -29 3 -34 12 -25 7 7 19 12 27 12 13 0 13 -2 -1 -17 -16 -15 -16 -18 3 -45
16 -22 17 -28 6 -28 -8 0 -22 10 -30 23 l-16 22 0 -22 c-1 -13 -5 -23 -11 -23
-6 0 -10 30 -10 70 0 40 4 70 10 70 6 0 10 -17 10 -37z m600 9 c0 -24 4 -28
28 -27 25 0 27 -3 30 -42 4 -50 -15 -59 -20 -10 -2 20 -8 32 -18 32 -10 0 -16
-12 -18 -32 -6 -61 -22 -33 -22 37 0 40 4 70 10 70 6 0 10 -13 10 -28z m2950
-30 c0 -33 5 -64 13 -71 10 -10 8 -12 -8 -9 -17 3 -20 12 -23 71 -2 42 1 67 8
67 6 0 10 -24 10 -58z m-4184 6 l7 -43 14 33 c7 17 19 32 27 32 7 0 18 -15 23
-32 l10 -33 8 43 c5 26 13 42 21 42 15 0 14 -6 -7 -92 -12 -48 -36 -50 -45 -3
-7 40 -20 38 -29 -5 -8 -35 -32 -40 -40 -7 -22 96 -23 107 -10 107 8 0 16 -18
21 -42z m299 0 l8 -43 10 33 c6 20 16 32 27 32 11 0 20 -11 25 -32 l8 -33 10
43 c5 23 15 42 22 42 13 0 11 -12 -10 -107 -8 -33 -32 -28 -40 7 -9 43 -22 45
-29 4 -10 -49 -37 -43 -48 11 -4 22 -10 50 -13 63 -4 15 -1 22 9 22 8 0 16
-16 21 -42z m545 32 c0 -5 -9 -10 -20 -10 -18 0 -20 -7 -20 -55 0 -30 -4 -55
-10 -55 -5 0 -10 25 -10 55 0 48 -2 55 -20 55 -11 0 -20 5 -20 10 0 6 23 10
50 10 28 0 50 -4 50 -10z m720 -30 c0 -43 -14 -54 -24 -17 -10 37 -7 57 9 57
11 0 15 -11 15 -40z m-390 16 c0 -8 6 -17 13 -20 10 -5 10 -7 0 -12 -15 -7
-17 -54 -3 -54 6 0 10 -4 10 -10 0 -5 -9 -10 -20 -10 -13 0 -22 9 -26 28 -3
15 -8 33 -10 40 -5 16 13 52 26 52 6 0 10 -6 10 -14z m1640 -11 c17 16 30 24
30 19 0 -6 -13 -23 -30 -39 l-30 -29 -30 29 c-16 16 -30 33 -30 39 0 5 14 -3
30 -19 l30 -29 30 29z m1025 5 c-3 -5 -1 -10 4 -10 6 0 11 5 11 10 0 6 7 10
16 10 8 0 12 -4 9 -10 -3 -5 -1 -10 4 -10 6 0 11 5 11 12 0 9 3 9 11 1 8 -8 7
-17 -1 -34 -11 -20 -10 -25 9 -37 32 -22 27 -47 -9 -48 -25 -1 -30 3 -30 22 0
13 -4 24 -10 24 -5 0 -10 -10 -10 -22 0 -19 -6 -23 -30 -24 -38 -1 -39 18 -2
44 22 17 25 23 15 33 -16 16 -17 49 -2 49 5 0 7 -4 4 -10z m636 -2 c0 -10 2
-10 6 0 2 6 11 12 19 12 8 0 14 -6 15 -12 0 -10 2 -10 6 0 2 6 9 12 14 12 13
0 11 -34 -3 -49 -11 -10 -9 -16 10 -28 32 -22 29 -49 -5 -47 -20 0 -29 7 -33
25 l-6 24 -7 -25 c-5 -19 -13 -25 -37 -26 -37 -1 -38 10 -3 42 20 19 24 27 15
36 -15 15 -16 48 -2 48 6 0 10 -6 11 -12z m-3457 -25 c-9 -39 -12 -43 -37 -44
-16 -1 -14 -3 8 -8 42 -9 48 -47 9 -57 -33 -8 -60 7 -57 32 2 11 4 35 5 54 3
35 10 39 71 49 4 0 4 -11 1 -26z m-816 5 c21 -21 13 -38 -18 -38 -16 0 -30 -5
-30 -11 0 -7 10 -9 25 -6 16 3 24 0 22 -7 -2 -6 -16 -12 -30 -14 -34 -4 -55
33 -38 67 13 23 50 28 69 9z m300 0 c28 -28 7 -78 -33 -78 -27 0 -45 18 -45
45 0 27 18 45 45 45 12 0 26 -5 33 -12z m92 2 c0 -4 -9 -10 -20 -13 -15 -4
-20 -14 -20 -36 0 -17 -4 -31 -10 -31 -5 0 -10 20 -10 43 0 42 1 44 30 45 17
0 30 -3 30 -8z m320 -4 c28 -35 -11 -93 -47 -70 -36 22 -23 84 17 84 10 0 23
-7 30 -14z m200 -5 c15 -29 13 -31 -26 -31 -23 0 -33 -4 -28 -11 3 -6 17 -8
31 -4 18 4 24 2 21 -7 -6 -18 -46 -22 -64 -8 -17 15 -18 52 -2 68 18 18 56 14
68 -7z m280 0 c15 -29 13 -31 -26 -31 -23 0 -33 -4 -28 -11 3 -6 17 -8 31 -4
18 4 24 2 21 -7 -6 -18 -46 -22 -64 -8 -17 15 -18 52 -2 68 18 18 56 14 68 -7z
m80 10 c0 -5 -7 -11 -15 -15 -9 -3 -15 -18 -15 -36 0 -16 -4 -30 -10 -30 -5 0
-10 20 -10 45 0 41 2 45 25 45 14 0 25 -4 25 -9z m2570 -1 c0 -5 -7 -10 -15
-10 -10 0 -15 -11 -15 -35 0 -19 -4 -35 -10 -35 -5 0 -10 20 -10 45 0 41 2 45
25 45 14 0 25 -4 25 -10z m40 -26 c0 -28 3 -35 18 -32 11 2 18 14 20 36 5 48
22 39 22 -12 l0 -44 -37 1 c-37 2 -38 3 -41 45 -2 25 1 42 7 42 6 0 11 -16 11
-36z m198 24 c21 -21 13 -38 -18 -38 -40 0 -38 -18 3 -22 25 -3 28 -6 14 -12
-9 -5 -28 -5 -42 -2 -21 5 -25 12 -25 40 0 19 6 37 13 39 22 9 43 7 55 -5z
m87 3 c3 -5 -5 -11 -17 -13 -22 -4 -22 -5 5 -16 29 -12 32 -19 18 -40 -10 -16
-53 -12 -58 4 -2 7 6 10 22 7 32 -7 32 5 0 17 -24 9 -32 29 -18 43 9 10 41 8
48 -2z m-2805 -66 c0 -8 -7 -15 -15 -15 -8 0 -15 7 -15 15 0 8 7 15 15 15 8 0
15 -7 15 -15z m2061 -422 c76 -44 97 -60 86 -68 -7 -5 -16 -18 -20 -27 -9 -25
-40 -24 -32 1 8 25 -31 40 -50 20 -28 -29 -18 -146 11 -135 16 6 19 -10 4 -19
-22 -14 -49 5 -47 33 2 26 1 27 -51 26 -29 -1 -56 -4 -59 -8 -3 -3 2 -17 12
-32 15 -23 22 -26 56 -21 21 3 42 1 45 -4 3 -5 -1 -9 -8 -9 -7 0 -22 -11 -33
-24 l-21 -24 -57 24 -58 23 -32 -19 c-18 -11 -35 -20 -39 -20 -5 0 -8 51 -8
114 l0 114 98 56 c53 30 98 55 100 56 1 0 48 -26 103 -57z m789 2 c0 -20 5
-25 24 -25 26 0 36 -16 36 -61 0 -19 -5 -29 -15 -29 -10 0 -15 11 -15 35 0 24
-5 35 -15 35 -10 0 -15 -11 -15 -35 0 -19 -4 -35 -10 -35 -6 0 -10 30 -10 70
0 40 4 70 10 70 6 0 10 -11 10 -25z m-359 -1 c11 -14 9 -15 -24 -9 -47 9 -52
-15 -7 -32 35 -13 47 -37 30 -58 -16 -20 -64 -19 -81 1 -11 14 -9 15 25 9 33
-7 38 -5 34 11 -2 10 -14 21 -27 24 -13 3 -29 13 -34 22 -24 38 54 68 84 32z
m459 6 c0 -5 -4 -10 -10 -10 -5 0 -10 5 -10 10 0 6 5 10 10 10 6 0 10 -4 10
-10z m400 -8 c0 -17 -63 -82 -80 -82 -23 0 -54 40 -40 54 6 6 15 4 25 -4 14
-11 20 -10 43 13 25 26 52 36 52 19z m123 -29 l15 -38 1 38 1 37 45 0 c29 0
45 -4 45 -12 0 -10 2 -10 9 0 5 8 23 12 47 10 34 -3 39 -6 39 -28 0 -20 -6
-26 -27 -28 -20 -2 -28 -9 -28 -23 0 -35 -30 -22 -31 14 0 17 -3 26 -6 20 -2
-7 -16 -13 -29 -13 -17 0 -24 -6 -24 -20 0 -16 -7 -20 -30 -20 -17 0 -40 6
-51 13 -17 10 -23 10 -26 0 -3 -7 -13 -13 -23 -13 -18 0 -18 2 2 50 25 62 49
66 71 13z m-885 -40 c3 -43 3 -43 -32 -43 -19 0 -38 5 -41 10 -9 15 14 40 36
40 11 0 19 5 19 10 0 6 -15 10 -32 10 -25 0 -30 3 -18 10 8 6 26 9 40 8 22 -3
25 -8 28 -45z m100 35 c27 -27 7 -78 -30 -78 -11 0 -18 -7 -18 -20 0 -11 -7
-20 -15 -20 -12 0 -15 14 -15 65 l0 65 33 0 c18 0 38 -5 45 -12z m110 0 c29
-29 7 -78 -35 -78 -16 0 -23 -6 -23 -20 0 -11 -4 -20 -10 -20 -6 0 -10 28 -10
65 l0 65 33 0 c18 0 38 -5 45 -12z m152 -33 c0 -25 -4 -45 -10 -45 -5 0 -10
20 -10 45 0 25 5 45 10 45 6 0 10 -20 10 -45z m85 35 c-3 -5 -13 -10 -21 -10
-9 0 -14 -11 -14 -35 0 -19 -4 -35 -10 -35 -5 0 -10 20 -10 45 0 44 1 45 31
45 17 0 28 -4 24 -10z m85 -9 c15 -29 13 -31 -26 -31 -23 0 -33 -4 -28 -11 3
-6 17 -9 31 -6 15 3 22 0 20 -7 -5 -16 -46 -20 -63 -6 -17 15 -18 52 -2 68 18
18 56 14 68 -7z m-4788 -113 c2 -25 0 -44 -4 -41 -5 2 -7 30 -7 61 1 62 6 53
11 -20z m290 0 c2 -25 0 -44 -4 -41 -5 2 -7 30 -7 61 1 62 6 53 11 -20z m1827
69 c-2 -1 -13 -9 -24 -17 -19 -14 -19 -14 -6 3 7 9 18 17 24 17 6 0 8 -1 6 -3z
m160 0 c-2 -1 -13 -9 -24 -17 -19 -14 -19 -14 -6 3 7 9 18 17 24 17 6 0 8 -1
6 -3z m124 -4 c-35 -7 -31 -43 5 -44 l27 -2 -27 -4 c-36 -6 -40 -49 -5 -56 19
-4 18 -4 -5 -6 -28 -1 -28 0 -28 59 0 59 0 60 28 59 23 -2 24 -2 5 -6z m34
-25 c-3 -8 -6 -5 -6 6 -1 11 2 17 5 13 3 -3 4 -12 1 -19z m312 -16 c-5 -2 -10
-16 -10 -30 -1 -27 -1 -27 -8 3 -10 40 -4 58 14 42 7 -7 9 -13 4 -15z m209 5
l22 -23 -27 -25 -28 -24 22 25 23 26 -22 22 c-13 12 -20 22 -17 22 3 0 15 -10
27 -23z m-278 -1 c0 -2 -7 -7 -16 -10 -8 -3 -12 -2 -9 4 6 10 25 14 25 6z
m-195 -35 c0 -16 -3 -27 -7 -24 -13 7 -7 53 6 53 1 0 1 -13 1 -29z m90 0 c0
-16 -3 -27 -7 -24 -13 7 -7 53 6 53 1 0 1 -13 1 -29z m-2798 13 c-3 -3 -12 -4
-19 -1 -8 3 -5 6 6 6 11 1 17 -2 13 -5z m182 -21 c-1 -17 -3 -21 -6 -10 -2 9
-10 17 -16 17 -7 0 -6 4 3 10 20 13 20 13 19 -17z m2155 -32 c-2 -3 -12 3 -22
13 -16 17 -16 18 5 5 12 -7 20 -15 17 -18z m196 3 c0 -2 -16 -4 -35 -4 -19 0
-35 4 -35 8 0 4 16 6 35 4 19 -2 35 -6 35 -8z m-2142 -1 c-10 -2 -26 -2 -35 0
-10 3 -2 5 17 5 19 0 27 -2 18 -5z m3991 -56 c15 -19 4 -27 -30 -20 -40 8 -36
-4 6 -21 36 -16 46 -41 23 -64 -16 -16 -63 -15 -77 1 -15 19 -4 27 30 20 38
-7 37 9 -1 24 -35 13 -47 37 -30 58 15 19 64 20 79 2z m121 3 c0 -5 -13 -10
-30 -10 -20 0 -30 -5 -30 -15 0 -9 9 -15 25 -15 14 0 25 -4 25 -10 0 -5 -11
-10 -25 -10 -18 0 -25 -5 -25 -20 0 -16 7 -20 30 -20 17 0 30 -4 30 -10 0 -5
-20 -10 -45 -10 l-45 0 0 65 0 65 45 0 c25 0 45 -4 45 -10z m120 -5 c10 -12
10 -21 0 -46 -10 -22 -10 -33 -1 -42 16 -16 14 -27 -8 -27 -12 0 -21 9 -25 25
-4 14 -13 25 -21 25 -9 0 -15 -10 -15 -25 0 -16 -6 -25 -15 -25 -12 0 -15 14
-15 65 l0 65 44 0 c26 0 48 -6 56 -15z m65 -30 c12 -41 13 -40 34 18 6 15 18
27 27 27 9 0 14 -6 12 -12 -3 -7 -13 -37 -22 -65 -24 -73 -47 -72 -75 6 -25
70 -26 73 -4 69 9 -2 21 -20 28 -43z m185 35 c0 -5 -13 -10 -30 -10 -20 0 -30
-5 -30 -15 0 -9 9 -15 25 -15 14 0 25 -4 25 -10 0 -5 -11 -10 -25 -10 -18 0
-25 -5 -25 -20 0 -16 7 -20 30 -20 17 0 30 -4 30 -10 0 -5 -20 -10 -45 -10
l-45 0 0 65 0 65 45 0 c25 0 45 -4 45 -10z m120 -9 c7 -14 7 -27 -1 -44 -8
-18 -8 -30 0 -46 10 -18 9 -21 -7 -21 -10 0 -24 11 -30 25 -6 14 -16 25 -22
25 -5 0 -10 -11 -10 -25 0 -16 -6 -25 -15 -25 -12 0 -15 14 -15 65 l0 65 45 0
c34 0 47 -5 55 -19z m154 13 c19 -7 21 -45 4 -62 -9 -9 -9 -15 0 -24 7 -7 12
-18 12 -25 0 -22 -26 -14 -38 12 -6 14 -16 25 -22 25 -5 0 -10 -11 -10 -25 0
-16 -6 -25 -15 -25 -12 0 -15 14 -15 65 l0 65 34 0 c19 0 41 -3 50 -6z m78
-46 c2 -39 7 -53 18 -53 11 0 16 14 18 53 3 45 6 52 24 52 19 0 20 -5 16 -56
-5 -60 -16 -74 -60 -74 -36 0 -58 33 -58 87 0 36 3 43 19 43 17 0 20 -8 23
-52z m128 -3 c0 -54 0 -55 30 -55 17 0 30 -4 30 -10 0 -5 -20 -10 -45 -10
l-45 0 0 65 c0 51 3 65 15 65 12 0 15 -13 15 -55z m170 45 c0 -5 -13 -10 -30
-10 -20 0 -30 -5 -30 -15 0 -9 9 -15 25 -15 14 0 25 -4 25 -10 0 -5 -11 -10
-25 -10 -18 0 -25 -5 -25 -20 0 -16 7 -20 30 -20 17 0 30 -4 30 -10 0 -5 -20
-10 -45 -10 l-45 0 0 65 0 65 45 0 c25 0 45 -4 45 -10z m99 1 c21 -13 5 -29
-24 -23 -34 6 -32 -7 4 -19 34 -12 45 -33 31 -60 -13 -23 -71 -26 -89 -6 -15
19 -4 27 30 20 38 -7 37 9 -1 24 -32 12 -40 39 -18 61 14 14 47 15 67 3z
m-1069 -571 c0 -33 4 -60 10 -60 6 0 10 -5 10 -11 0 -6 -10 -9 -22 -7 -21 3
-23 9 -26 71 -2 55 0 67 13 67 12 0 15 -13 15 -60z m-166 44 c19 -7 21 -45 4
-62 -9 -9 -9 -15 0 -24 7 -7 12 -18 12 -25 0 -22 -26 -14 -38 12 -6 14 -16 25
-22 25 -5 0 -10 -11 -10 -25 0 -16 -6 -25 -15 -25 -12 0 -15 14 -15 65 l0 65
34 0 c19 0 41 -3 50 -6z m66 -70 c0 -21 4 -33 10 -29 6 3 10 19 10 36 0 19 5
29 15 29 11 0 15 -12 15 -44 l0 -44 -37 0 c-43 0 -53 10 -53 56 0 25 4 32 20
32 16 0 20 -7 20 -36z m208 9 c3 -19 -1 -23 -22 -23 -14 0 -26 -4 -26 -10 0
-5 8 -9 18 -7 9 1 19 -2 22 -8 3 -5 -7 -11 -21 -13 -28 -3 -59 20 -59 43 0 44
82 61 88 18z m85 20 c4 -3 2 -12 -4 -20 -9 -9 -8 -13 0 -13 17 0 13 -40 -4
-46 -21 -9 -67 5 -60 17 4 5 16 7 28 4 21 -5 21 -5 0 6 -22 12 -30 38 -16 52
8 9 48 9 56 0z m837 -307 c0 -30 5 -58 10 -61 17 -10 11 -25 -9 -25 -24 0 -31
19 -31 86 0 41 4 54 15 54 11 0 15 -13 15 -54z m60 -6 c0 -33 4 -60 10 -60 6
0 10 -5 10 -11 0 -6 -10 -9 -22 -7 -21 3 -23 9 -26 71 -2 55 0 67 13 67 12 0
15 -13 15 -60z m540 0 c0 -33 4 -60 10 -60 6 0 10 -5 10 -11 0 -6 -10 -9 -22
-7 -21 3 -23 9 -26 71 -2 55 0 67 13 67 12 0 15 -13 15 -60z m-1840 0 c0 -38
4 -50 15 -50 8 0 15 -7 15 -15 0 -11 -12 -15 -45 -15 -33 0 -45 4 -45 15 0 8
7 15 15 15 10 0 15 10 15 30 0 20 -5 30 -15 30 -20 0 -19 17 3 29 34 20 42 13
42 -39z m234 44 c19 -7 21 -45 4 -62 -9 -9 -9 -15 0 -24 7 -7 12 -18 12 -25 0
-22 -26 -14 -38 12 -6 14 -16 25 -22 25 -5 0 -10 -11 -10 -25 0 -16 -6 -25
-15 -25 -12 0 -15 14 -15 65 l0 65 34 0 c19 0 41 -3 50 -6z m676 -59 c0 -51
-3 -65 -15 -65 -12 0 -15 14 -15 65 0 51 3 65 15 65 12 0 15 -14 15 -65z
m1101 41 c16 -35 -3 -66 -41 -66 -23 0 -30 -4 -30 -20 0 -11 -7 -20 -15 -20
-12 0 -15 14 -15 65 l0 65 45 0 c38 0 47 -4 56 -24z m-1211 0 c0 -8 6 -17 13
-20 10 -5 10 -7 0 -12 -15 -7 -17 -40 -3 -49 18 -11 10 -26 -12 -23 -18 2 -24
12 -29 43 -7 40 3 75 21 75 6 0 10 -6 10 -14z m280 0 c0 -8 6 -17 13 -20 10
-5 10 -7 0 -12 -15 -7 -17 -54 -3 -54 6 0 10 -5 10 -11 0 -6 -10 -9 -22 -7
-17 2 -24 11 -26 33 -2 16 -9 34 -15 38 -9 6 -9 10 1 14 6 2 12 11 12 19 0 8
7 14 15 14 8 0 15 -6 15 -14z m490 0 c0 -8 6 -17 13 -20 10 -5 10 -7 0 -12
-15 -7 -17 -54 -3 -54 6 0 10 -5 10 -11 0 -6 -10 -9 -22 -7 -17 2 -24 11 -26
33 -2 16 -9 34 -15 38 -9 6 -9 10 1 14 6 2 12 11 12 19 0 8 7 14 15 14 8 0 15
-6 15 -14z m970 -1 c0 -10 10 -15 30 -15 20 0 30 -5 30 -15 0 -8 5 -15 10 -15
6 0 10 7 10 15 0 8 9 15 19 15 20 0 19 -1 -1 -52 -26 -65 -41 -83 -64 -74 -16
6 -16 7 1 20 17 12 18 18 7 54 -9 30 -17 40 -27 36 -17 -7 -21 -54 -5 -54 6 0
10 -5 10 -11 0 -6 -10 -9 -22 -7 -18 2 -24 11 -26 36 -3 34 -5 35 -39 26 -17
-5 -23 -14 -23 -35 0 -19 -5 -29 -15 -29 -11 0 -15 12 -15 46 0 37 3 45 18 43
45 -4 72 2 72 16 0 8 7 15 15 15 8 0 15 -7 15 -15z m-2202 -27 c22 -22 13 -38
-20 -38 -17 0 -28 -3 -24 -7 4 -5 16 -8 27 -8 30 0 27 -20 -4 -23 -34 -4 -57
13 -57 42 0 28 18 46 45 46 12 0 26 -5 33 -12z m88 -4 c-4 -9 -1 -23 5 -30 9
-11 8 -18 -1 -30 -14 -16 -68 -16 -60 1 3 6 14 9 25 8 15 -2 14 1 -7 13 -31
16 -31 16 -22 38 4 10 18 16 36 16 24 0 29 -3 24 -16z m98 10 c10 -4 16 -18
16 -40 0 -30 -4 -35 -30 -40 -21 -5 -30 -12 -30 -25 0 -11 -7 -19 -15 -19 -12
0 -15 14 -15 65 l0 65 29 0 c16 0 36 -3 45 -6z m116 -13 c15 -29 13 -31 -21
-31 -18 0 -28 -4 -24 -10 4 -6 13 -9 20 -8 8 2 15 -1 17 -7 4 -13 -43 -18 -61
-6 -7 5 -13 21 -13 36 0 45 61 64 82 26z m100 9 c13 -8 12 -10 -1 -15 -9 -3
-22 -5 -30 -3 -8 2 -14 -5 -14 -17 0 -14 7 -20 22 -20 33 0 38 -13 8 -21 -34
-8 -59 5 -63 35 -6 42 39 66 78 41z m278 -37 c2 -34 0 -43 -12 -43 -11 0 -16
9 -16 29 0 17 -4 33 -10 36 -6 4 -10 -8 -10 -29 0 -29 -4 -36 -20 -36 -17 0
-20 7 -20 44 l0 45 43 -2 42 -2 3 -42z m172 28 c15 -29 13 -31 -21 -31 -18 0
-28 -4 -24 -10 4 -6 13 -9 20 -8 8 2 15 -1 17 -7 4 -13 -43 -18 -61 -6 -7 5
-13 21 -13 36 0 45 61 64 82 26z m218 -8 c3 -19 -1 -23 -22 -23 -14 0 -26 -4
-26 -10 0 -5 8 -9 18 -7 9 1 19 -2 22 -8 3 -5 -7 -11 -21 -13 -28 -3 -59 20
-59 43 0 44 82 61 88 18z m100 9 c3 -9 -3 -13 -19 -10 -18 2 -24 -2 -24 -17 0
-15 6 -19 24 -17 16 3 22 -1 19 -10 -5 -16 -48 -22 -67 -9 -7 5 -13 21 -13 36
0 15 6 31 13 36 19 13 62 7 67 -9z m124 -14 c2 -18 8 -33 13 -33 6 0 11 15 13
33 5 52 32 42 32 -12 l0 -44 -37 0 c-43 0 -53 10 -53 56 0 21 5 32 14 32 9 0
16 -12 18 -32z m156 -16 l3 -43 -38 3 c-30 2 -38 7 -38 23 0 12 9 22 25 26 14
4 21 8 15 10 -18 4 -30 7 -38 8 -5 0 -5 6 -2 12 4 5 21 9 38 7 30 -3 32 -6 35
-46z m312 36 c0 -5 -9 -12 -20 -15 -14 -4 -20 -14 -20 -34 0 -19 -5 -29 -15
-29 -11 0 -15 12 -15 44 0 44 0 44 35 44 19 0 35 -4 35 -10z m91 -9 c16 -31
-3 -69 -35 -69 -27 0 -56 23 -56 45 0 42 71 61 91 24z m93 15 c10 -4 16 -18
16 -40 0 -30 -4 -35 -30 -40 -21 -5 -30 -12 -30 -25 0 -11 -7 -19 -15 -19 -12
0 -15 14 -15 65 l0 65 29 0 c16 0 36 -3 45 -6z m116 -13 c15 -29 13 -31 -21
-31 -18 0 -28 -4 -24 -10 4 -6 13 -9 20 -8 8 2 15 -1 17 -7 4 -13 -43 -18 -61
-6 -7 5 -13 21 -13 36 0 45 61 64 82 26z m300 4 c0 -8 -7 -15 -15 -15 -8 0
-15 7 -15 15 0 8 7 15 15 15 8 0 15 -7 15 -15z m-2617 -60 c1 -5 -6 -11 -15
-13 -11 -2 -18 3 -18 13 0 17 30 18 33 0z m2617 0 c0 -8 -7 -15 -15 -15 -8 0
-15 7 -15 15 0 8 7 15 15 15 8 0 15 -7 15 -15z m-2010 -209 c0 -19 6 -25 28
-28 24 -3 27 -7 30 -45 2 -24 -1 -43 -7 -43 -5 0 -11 17 -13 38 -2 25 -8 37
-18 37 -10 0 -16 -12 -18 -37 -5 -66 -22 -41 -22 32 0 40 4 70 10 70 6 0 10
-11 10 -24z m1010 0 c0 -19 6 -25 28 -28 24 -3 27 -7 30 -45 2 -24 -1 -43 -7
-43 -5 0 -11 17 -13 38 -2 25 -8 37 -18 37 -10 0 -16 -12 -18 -37 -5 -66 -22
-41 -22 32 0 40 4 70 10 70 6 0 10 -11 10 -24z m330 -44 c0 -66 -1 -68 -26
-70 -33 -3 -54 14 -54 42 0 27 18 46 42 46 13 0 18 8 18 25 0 14 5 25 10 25 6
0 10 -29 10 -68z m720 4 c0 -42 4 -66 13 -70 6 -3 3 -5 -8 -3 -17 2 -20 11
-23 70 -2 42 1 67 8 67 6 0 10 -26 10 -64z m368 12 c24 -3 27 -8 30 -45 2 -26
-1 -43 -7 -43 -6 0 -11 18 -11 40 0 59 -33 48 -43 -15 -2 -16 -4 4 -4 45 0 41
2 63 4 48 3 -20 11 -28 31 -30z m1560 0 c24 -3 27 -8 30 -45 2 -26 -1 -43 -7
-43 -6 0 -11 18 -11 40 0 59 -33 48 -43 -15 -2 -16 -4 4 -4 45 0 41 2 63 4 48
3 -20 11 -28 31 -30z m-4594 26 c9 -8 16 -31 16 -49 0 -43 -22 -65 -66 -65
l-34 0 0 65 0 65 34 0 c19 0 42 -7 50 -16z m1476 6 c0 -5 -4 -10 -10 -10 -5 0
-10 5 -10 10 0 6 5 10 10 10 6 0 10 -4 10 -10z m1050 0 c0 -5 -4 -10 -10 -10
-5 0 -10 5 -10 10 0 6 5 10 10 10 6 0 10 -4 10 -10z m370 0 c0 -5 -4 -10 -10
-10 -5 0 -10 5 -10 10 0 6 5 10 10 10 6 0 10 -4 10 -10z m970 0 c0 -5 -4 -10
-10 -10 -5 0 -10 5 -10 10 0 6 5 10 10 10 6 0 10 -4 10 -10z m210 0 c0 -5 -4
-10 -10 -10 -5 0 -10 5 -10 10 0 6 5 10 10 10 6 0 10 -4 10 -10z m336 -35 c8
-54 21 -58 30 -10 8 45 31 45 40 0 10 -53 21 -51 28 5 4 28 12 50 17 50 7 0 9
-10 6 -22 -4 -13 -9 -42 -13 -65 -4 -24 -12 -43 -19 -43 -6 0 -18 19 -25 43
l-13 42 -14 -43 c-18 -51 -35 -50 -45 4 -4 21 -10 49 -13 62 -3 12 -1 22 4 22
5 0 13 -20 17 -45z m-3996 20 c0 -8 8 -16 18 -16 16 -1 16 -2 0 -6 -21 -5 -25
-68 -5 -77 6 -3 3 -5 -8 -3 -15 2 -21 11 -23 37 -2 19 -9 38 -15 42 -9 6 -9 8
1 8 6 0 12 7 12 15 0 8 5 15 10 15 6 0 10 -7 10 -15z m1310 0 c0 -8 8 -16 18
-16 16 -1 16 -2 0 -6 -13 -3 -18 -14 -18 -38 0 -23 5 -35 18 -39 10 -3 6 -4
-8 -3 -21 2 -26 8 -28 37 -2 19 -9 38 -15 42 -9 6 -9 8 1 8 6 0 12 7 12 15 0
8 5 15 10 15 6 0 10 -7 10 -15z m570 0 c0 -8 8 -16 18 -16 16 -1 16 -2 0 -6
-13 -3 -18 -14 -18 -38 0 -23 5 -35 18 -39 10 -3 6 -4 -8 -3 -21 2 -26 8 -28
37 -2 19 -9 38 -15 42 -9 6 -9 8 1 8 6 0 12 7 12 15 0 8 5 15 10 15 6 0 10 -7
10 -15z m650 0 c0 -8 8 -16 18 -16 16 -1 16 -2 0 -6 -13 -3 -18 -14 -18 -38 0
-23 5 -35 18 -39 10 -3 6 -4 -8 -3 -21 2 -26 8 -28 37 -2 19 -9 38 -15 42 -9
6 -9 8 1 8 6 0 12 7 12 15 0 8 5 15 10 15 6 0 10 -7 10 -15z m380 0 c0 -8 8
-16 18 -16 16 -1 16 -2 0 -6 -13 -3 -18 -14 -18 -38 0 -23 5 -35 18 -39 10 -3
6 -4 -8 -3 -21 2 -26 8 -28 37 -2 19 -9 38 -15 42 -9 6 -9 8 1 8 6 0 12 7 12
15 0 8 5 15 10 15 6 0 10 -7 10 -15z m-1754 -28 c-3 -33 -14 -47 -37 -47 -10
0 -19 -4 -19 -10 0 -5 13 -10 28 -10 36 0 44 -8 31 -32 -8 -14 -19 -18 -42
-16 -28 3 -32 7 -32 33 0 67 9 90 40 96 17 4 31 7 32 8 1 0 1 -9 -1 -22z
m-1455 -8 c16 -30 -3 -69 -34 -69 -29 0 -47 17 -47 45 0 45 60 63 81 24z m143
5 c9 -24 7 -74 -3 -74 -6 0 -11 17 -13 38 -2 25 -8 37 -18 37 -10 0 -16 -12
-18 -37 -4 -53 -22 -47 -22 7 0 44 0 45 34 45 22 0 36 -6 40 -16z m94 4 c17
-17 15 -53 -3 -68 -8 -7 -25 -10 -40 -6 -24 6 -30 21 -25 56 4 29 46 40 68 18z
m208 1 c4 -7 0 -9 -14 -5 -30 10 -37 -12 -8 -24 29 -11 35 -37 10 -47 -8 -3
-25 0 -37 6 -21 11 -21 11 5 6 31 -6 48 12 21 22 -30 10 -42 24 -36 39 6 17
49 19 59 3z m202 -36 c3 -43 3 -43 -31 -43 -37 0 -54 19 -34 39 6 6 19 11 30
11 11 0 17 5 14 13 -2 6 -14 11 -26 10 -14 -2 -20 1 -16 8 4 5 19 9 33 7 24
-3 27 -8 30 -45z m65 32 c-12 -9 -23 -29 -26 -48 -3 -26 -4 -23 -5 13 -2 43 0
46 25 48 28 2 28 2 6 -13z m95 3 c23 -23 13 -38 -24 -38 -31 0 -35 -2 -24 -15
8 -10 21 -13 38 -8 17 4 23 2 18 -6 -9 -15 -49 -14 -64 1 -26 26 -7 78 28 78
9 0 21 -5 28 -12z m142 2 c8 -5 11 -12 7 -16 -3 -4 -13 -1 -21 5 -20 17 -36 6
-36 -24 0 -28 17 -42 33 -26 14 14 27 14 27 1 0 -16 -49 -23 -65 -10 -44 37 6
101 55 70z m98 -2 c7 -7 12 -21 12 -33 0 -47 -62 -63 -81 -21 -22 47 33 90 69
54z m98 1 c30 -24 10 -79 -28 -79 -11 0 -18 -7 -18 -20 0 -11 -4 -20 -10 -20
-6 0 -10 28 -10 63 0 61 1 63 26 65 15 1 33 -3 40 -9z m55 -21 l13 -32 14 33
c20 51 27 28 7 -26 -22 -58 -33 -73 -54 -73 -14 1 -14 2 2 11 21 12 22 35 2
83 -8 20 -11 36 -6 36 5 0 15 -14 22 -32z m112 22 c-18 -7 -23 -17 -23 -45 0
-19 -4 -35 -10 -35 -5 0 -10 20 -10 45 0 44 1 45 33 44 29 0 30 -1 10 -9z m47
-35 c0 -25 -4 -45 -10 -45 -5 0 -10 20 -10 45 0 25 5 45 10 45 6 0 10 -20 10
-45z m358 33 c23 -23 13 -38 -24 -38 -31 0 -35 -2 -24 -15 8 -10 21 -13 38 -8
17 4 23 2 18 -6 -9 -15 -49 -14 -64 1 -26 26 -7 78 28 78 9 0 21 -5 28 -12z
m310 -35 c2 -26 -1 -43 -7 -43 -6 0 -11 18 -11 41 0 52 -24 48 -28 -4 -4 -48
-20 -48 -24 1 -2 25 -8 37 -18 37 -10 0 -16 -12 -18 -37 -4 -53 -22 -47 -22 7
l0 45 63 -3 62 -2 3 -42z m100 0 c3 -43 3 -43 -31 -43 -37 0 -54 19 -34 39 6
6 19 11 30 11 11 0 17 5 14 13 -2 6 -14 11 -26 10 -14 -2 -20 1 -16 8 4 5 19
9 33 7 24 -3 27 -8 30 -45z m160 35 c23 -23 13 -38 -24 -38 -31 0 -35 -2 -24
-15 8 -10 21 -13 38 -8 17 4 23 2 18 -6 -9 -15 -49 -14 -64 1 -26 26 -7 78 28
78 9 0 21 -5 28 -12z m75 2 c-18 -7 -23 -17 -23 -45 0 -19 -4 -35 -10 -35 -5
0 -10 20 -10 45 0 44 1 45 33 44 29 0 30 -1 10 -9z m47 -35 c0 -25 -4 -45 -10
-45 -5 0 -10 20 -10 45 0 25 5 45 10 45 6 0 10 -20 10 -45z m94 29 c3 -9 6
-28 6 -43 0 -25 -4 -28 -35 -29 -19 -1 -37 3 -40 9 -9 14 14 39 37 39 11 0 18
5 15 13 -2 6 -14 11 -26 10 -13 -2 -20 1 -16 7 10 16 52 12 59 -6z m136 -14
c0 -32 17 -32 24 0 7 39 23 38 34 -2 9 -33 11 -32 26 16 12 36 17 8 6 -33 -12
-46 -27 -53 -36 -16 -8 31 -22 33 -26 3 -5 -36 -26 -32 -37 9 -14 47 -14 56
-1 48 6 -3 10 -15 10 -25z m140 -15 c0 -25 -4 -45 -10 -45 -5 0 -10 20 -10 45
0 25 5 45 10 45 6 0 10 -20 10 -45z m268 33 c17 -17 15 -53 -3 -68 -8 -7 -25
-10 -40 -6 -24 6 -30 21 -25 56 4 29 46 40 68 18z m54 -25 c2 -26 8 -38 18
-38 10 0 16 12 18 38 4 52 22 47 22 -7 l0 -44 -37 1 c-37 2 -38 3 -41 45 -2
23 1 42 7 42 5 0 11 -17 13 -37z m264 26 c30 -24 10 -79 -28 -79 -11 0 -18 -7
-18 -20 0 -11 -4 -20 -10 -20 -6 0 -10 28 -10 63 0 61 1 63 26 65 15 1 33 -3
40 -9z m112 -16 c3 -20 -1 -23 -28 -23 -21 0 -30 -4 -27 -12 2 -7 16 -12 31
-11 14 1 24 -2 21 -8 -9 -13 -49 -11 -63 3 -16 16 -15 51 0 66 21 21 63 10 66
-15z m65 17 c-18 -7 -23 -17 -23 -45 0 -19 -4 -35 -10 -35 -5 0 -10 20 -10 45
0 44 1 45 33 44 29 0 30 -1 10 -9z m155 -37 c2 -26 -1 -43 -7 -43 -6 0 -11 18
-11 41 0 52 -24 48 -28 -4 -4 -48 -20 -48 -24 1 -2 25 -8 37 -18 37 -10 0 -16
-12 -18 -37 -4 -53 -22 -47 -22 7 l0 45 63 -3 62 -2 3 -42z m52 2 c0 -25 -4
-45 -10 -45 -5 0 -10 20 -10 45 0 25 5 45 10 45 6 0 10 -20 10 -45z m80 34 c0
-6 -9 -8 -20 -4 -30 9 -25 -14 6 -25 16 -7 24 -16 22 -28 -4 -20 -46 -29 -62
-12 -8 9 -6 11 11 6 31 -10 39 12 9 24 -25 9 -34 29 -19 43 10 11 53 8 53 -4z
m86 0 c4 -7 0 -9 -14 -5 -30 10 -37 -12 -8 -24 29 -11 35 -37 10 -47 -8 -3
-25 0 -37 6 -21 11 -21 11 5 6 31 -6 48 12 21 22 -30 10 -42 24 -36 39 6 17
49 19 59 3z m44 -34 c0 -25 -4 -45 -10 -45 -5 0 -10 20 -10 45 0 25 5 45 10
45 6 0 10 -20 10 -45z m98 33 c7 -7 12 -21 12 -33 0 -47 -62 -63 -81 -21 -22
47 33 90 69 54z m106 -4 c9 -24 7 -74 -3 -74 -6 0 -11 17 -13 38 -2 25 -8 37
-18 37 -10 0 -16 -12 -18 -37 -4 -53 -22 -47 -22 7 0 44 0 45 34 45 22 0 36
-6 40 -16z m444 4 c23 -23 13 -38 -24 -38 -31 0 -35 -2 -24 -15 8 -9 22 -13
39 -9 23 5 24 4 8 -6 -39 -25 -74 1 -67 50 4 29 46 40 68 18z m100 -35 c2 -26
-1 -43 -7 -43 -6 0 -11 18 -11 41 0 52 -24 48 -28 -4 -4 -52 -22 -46 -22 7 0
42 1 43 33 42 30 -1 32 -3 35 -43z m-498 -33 c0 -5 -4 -10 -10 -10 -5 0 -10 5
-10 10 0 6 5 10 10 10 6 0 10 -4 10 -10z m-3187 -147 c-7 -2 -13 -13 -13 -24
0 -10 6 -19 13 -20 10 0 10 -2 0 -6 -8 -2 -13 -22 -13 -44 0 -21 -4 -39 -10
-39 -5 0 -10 18 -10 40 0 25 -5 40 -12 41 -10 0 -10 2 0 6 6 2 12 13 12 22 0
22 9 31 29 30 10 0 12 -2 4 -6z m1649 -63 c2 -44 -1 -69 -7 -67 -13 5 -19 137
-6 137 5 0 11 -32 13 -70z m398 28 c0 -41 0 -41 20 -23 11 10 22 16 25 13 3
-3 -1 -11 -10 -18 -13 -11 -12 -16 6 -41 11 -16 16 -29 10 -29 -6 0 -15 9 -21
20 -6 11 -15 20 -20 20 -6 0 -10 -9 -10 -20 0 -11 -4 -20 -10 -20 -6 0 -10 30
-10 70 0 40 4 70 10 70 6 0 10 -19 10 -42z m-2110 22 c0 -5 -4 -10 -10 -10 -5
0 -10 5 -10 10 0 6 5 10 10 10 6 0 10 -4 10 -10z m150 0 c0 -5 -4 -10 -10 -10
-5 0 -10 5 -10 10 0 6 5 10 10 10 6 0 10 -4 10 -10z m110 -10 c0 -11 -4 -20
-10 -20 -5 0 -10 9 -10 20 0 11 5 20 10 20 6 0 10 -9 10 -20z m-60 -5 c0 -8 8
-16 18 -16 16 -1 16 -2 0 -6 -13 -3 -18 -14 -18 -38 0 -23 5 -35 18 -39 10 -3
6 -4 -8 -3 -21 2 -26 8 -28 37 -2 19 -9 38 -15 42 -9 6 -9 8 1 8 6 0 12 7 12
15 0 8 5 15 10 15 6 0 10 -7 10 -15z m440 0 c0 -8 8 -16 18 -16 16 -1 16 -2 0
-6 -13 -3 -18 -14 -18 -38 0 -23 5 -35 18 -39 10 -3 6 -4 -8 -3 -21 2 -26 8
-28 37 -2 19 -9 38 -15 42 -9 6 -9 8 1 8 6 0 12 7 12 15 0 8 5 15 10 15 6 0
10 -7 10 -15z m790 -9 c0 -1 -5 -17 -11 -35 -8 -23 -17 -31 -36 -31 -13 0 -21
-4 -18 -10 3 -5 17 -10 30 -10 29 0 41 -16 25 -35 -15 -18 -54 -19 -67 -2 -6
6 -7 34 -4 62 5 45 9 50 36 56 41 9 45 9 45 5z m-2564 -17 c30 -24 10 -79 -28
-79 -11 0 -18 -7 -18 -20 0 -11 -4 -20 -10 -20 -6 0 -10 28 -10 63 0 61 1 63
26 65 15 1 33 -3 40 -9z m77 1 c-18 -7 -23 -17 -23 -45 0 -19 -4 -35 -10 -35
-5 0 -10 20 -10 45 0 44 1 45 33 44 29 0 30 -1 10 -9z m95 -2 c17 -17 15 -53
-3 -68 -8 -7 -25 -10 -40 -6 -24 6 -30 21 -25 56 4 29 46 40 68 18z m113 -10
c16 -30 -3 -68 -36 -68 -18 0 -25 -5 -25 -20 0 -11 -4 -20 -10 -20 -6 0 -10
28 -10 63 l0 64 35 1 c26 1 37 -4 46 -20z m97 -5 c3 -20 -1 -23 -28 -23 -21 0
-30 -4 -27 -12 2 -7 16 -12 31 -11 14 1 24 -2 21 -8 -4 -5 -17 -9 -31 -9 -32
0 -51 38 -34 69 16 30 64 26 68 -6z m65 12 c-12 -9 -23 -29 -26 -48 -3 -26 -4
-23 -5 13 -2 43 0 46 25 48 28 2 28 2 6 -13z m133 4 c4 -7 0 -9 -14 -5 -33 11
-35 -11 -2 -23 32 -11 37 -20 18 -39 -15 -15 -45 -16 -54 -1 -4 7 0 9 14 5 30
-10 37 12 8 24 -25 9 -34 29 -19 43 10 11 41 8 49 -4z m105 -10 c16 -30 -3
-69 -34 -69 -29 0 -47 17 -47 45 0 45 60 63 81 24z m59 -54 c10 0 16 12 18 38
5 53 22 46 22 -9 0 -45 0 -45 -32 -42 -32 3 -33 5 -34 48 l-2 45 7 -40 c4 -26
11 -40 21 -40z m108 64 c-12 -6 -18 -22 -18 -44 0 -19 -4 -35 -10 -35 -5 0
-10 19 -10 43 0 39 2 43 28 45 23 1 24 0 10 -9z m100 -7 c3 -11 0 -12 -17 -3
-27 15 -41 7 -41 -24 0 -31 14 -39 41 -24 17 9 20 8 17 -3 -6 -18 -46 -23 -64
-8 -17 15 -18 52 -2 68 16 16 60 11 66 -6z m90 6 c23 -23 13 -38 -24 -38 -31
0 -35 -2 -24 -15 8 -9 22 -13 39 -9 23 5 24 4 8 -6 -39 -25 -74 1 -67 50 4 29
46 40 68 18z m92 -33 c0 -25 -4 -45 -10 -45 -5 0 -10 20 -10 45 0 25 5 45 10
45 6 0 10 -20 10 -45z m150 0 c0 -25 -4 -45 -10 -45 -5 0 -10 20 -10 45 0 25
5 45 10 45 6 0 10 -20 10 -45z m186 34 c4 -7 0 -9 -14 -5 -33 11 -35 -11 -2
-23 32 -11 37 -20 18 -39 -15 -15 -45 -16 -54 -1 -4 7 0 9 14 5 30 -10 37 12
8 24 -25 9 -34 29 -19 43 10 11 41 8 49 -4z m148 -5 c9 -24 7 -74 -3 -74 -6 0
-11 17 -13 38 -2 25 -8 37 -18 37 -10 0 -16 -12 -18 -37 -4 -53 -22 -47 -22 7
0 44 0 45 34 45 22 0 36 -6 40 -16z m94 4 c17 -17 15 -53 -3 -68 -8 -7 -25
-10 -40 -6 -24 6 -30 21 -25 56 4 29 46 40 68 18z m166 -13 c4 -14 11 -25 16
-25 5 0 12 11 16 25 3 14 10 25 16 25 10 0 4 -24 -23 -87 -11 -27 -25 -43 -36
-43 -15 0 -15 2 2 14 21 15 21 15 -12 104 -3 6 -1 12 5 12 5 0 13 -11 16 -25z
m147 4 c16 -30 -3 -69 -34 -69 -29 0 -47 17 -47 45 0 45 60 63 81 24z m59 -54
c10 0 16 12 18 38 5 53 22 46 22 -9 0 -45 0 -45 -32 -42 -32 3 -33 5 -34 48
l-2 45 7 -40 c4 -26 11 -40 21 -40z m108 64 c-12 -6 -18 -22 -18 -44 0 -19 -4
-35 -10 -35 -5 0 -10 19 -10 43 0 39 2 43 28 45 23 1 24 0 10 -9z m142 -3 c28
-35 -11 -93 -47 -70 -36 22 -23 84 17 84 10 0 23 -7 30 -14z m73 4 c-18 -7
-23 -17 -23 -45 0 -19 -4 -35 -10 -35 -5 0 -10 20 -10 45 0 44 1 45 33 44 29
0 30 -1 10 -9z m44 -57 c-2 -16 -4 -5 -4 22 0 28 2 40 4 28 2 -13 2 -35 0 -50z
m140 0 c-2 -16 -4 -5 -4 22 0 28 2 40 4 28 2 -13 2 -35 0 -50z m107 51 c9 -24
7 -74 -3 -74 -6 0 -11 17 -13 38 -2 25 -8 37 -18 37 -10 0 -16 -12 -18 -37 -4
-53 -22 -47 -22 7 0 44 0 45 34 45 22 0 36 -6 40 -16z m94 -30 c3 -40 3 -41
-30 -40 -46 1 -52 34 -8 42 38 8 34 30 -4 26 -19 -2 -25 1 -21 8 4 6 19 10 33
8 24 -3 27 -8 30 -44z m139 14 l11 -33 7 33 c4 17 13 32 20 32 7 0 16 -15 20
-32 l7 -33 11 33 c5 17 14 32 20 32 5 0 6 -8 2 -17 -3 -10 -9 -30 -12 -45 -8
-38 -30 -35 -39 5 l-7 32 -10 -32 c-12 -40 -33 -43 -40 -5 -3 15 -9 35 -12 45
-4 9 -3 17 2 17 6 0 15 -15 20 -32z m194 11 c16 -30 -3 -69 -34 -69 -29 0 -47
17 -47 45 0 45 60 63 81 24z m67 10 c-12 -6 -18 -22 -18 -44 0 -19 -4 -35 -10
-35 -5 0 -10 19 -10 43 0 39 2 43 28 45 23 1 24 0 10 -9z m142 -69 c0 -5 -4
-10 -10 -10 -5 0 -10 5 -10 10 0 6 5 10 10 10 6 0 10 -4 10 -10z m-2950 -494
c0 -30 5 -58 10 -61 17 -10 11 -25 -9 -25 -24 0 -31 19 -31 86 0 41 4 54 15
54 11 0 15 -13 15 -54z m1063 39 c1 -5 -6 -11 -15 -13 -11 -2 -18 3 -18 13 0
17 30 18 33 0z m249 -52 c4 -78 4 -78 -17 -70 -21 9 -22 137 -1 137 11 0 15
-18 18 -67z m-1708 51 c25 -10 19 -50 -10 -73 l-27 -21 27 0 c16 0 26 -5 26
-15 0 -11 -12 -15 -45 -15 -55 0 -60 19 -15 58 17 15 30 30 30 35 0 5 -13 6
-30 2 -31 -7 -39 2 -18 23 13 13 37 15 62 6z m166 -19 c0 -20 5 -25 25 -25 20
0 25 5 25 25 0 16 6 25 15 25 12 0 15 -14 15 -65 0 -51 -3 -65 -15 -65 -10 0
-15 10 -15 30 0 25 -4 30 -25 30 -21 0 -25 -5 -25 -30 0 -20 -5 -30 -15 -30
-12 0 -15 14 -15 65 0 51 3 65 15 65 9 0 15 -9 15 -25z m509 11 c16 -19 -2
-30 -27 -17 -23 12 -42 -3 -42 -34 0 -31 19 -46 42 -34 25 13 43 2 27 -17 -12
-15 -56 -19 -76 -6 -32 20 -32 94 0 114 20 13 64 9 76 -6z m361 -10 c0 -8 6
-17 13 -20 10 -5 10 -7 0 -12 -15 -7 -17 -40 -3 -49 18 -11 10 -26 -12 -23
-18 2 -24 12 -29 43 -7 40 3 75 21 75 6 0 10 -6 10 -14z m360 0 c0 -8 6 -17
13 -20 10 -5 10 -7 0 -12 -15 -7 -17 -54 -3 -54 6 0 10 -5 10 -11 0 -6 -10 -9
-22 -7 -17 2 -24 11 -26 33 -2 16 -9 34 -15 38 -9 6 -9 10 1 14 6 2 12 11 12
19 0 8 7 14 15 14 8 0 15 -6 15 -14z m-1050 -35 c15 -29 13 -31 -21 -31 -18 0
-28 -4 -24 -10 4 -6 13 -9 20 -8 8 2 15 -1 17 -7 4 -13 -43 -18 -61 -6 -7 5
-13 21 -13 36 0 45 61 64 82 26z m158 7 c27 -27 7 -78 -30 -78 -11 0 -18 -7
-18 -20 0 -11 -7 -20 -15 -20 -12 0 -15 14 -15 65 l0 65 33 0 c18 0 38 -5 45
-12z m270 0 c7 -7 12 -21 12 -33 0 -12 -5 -26 -12 -33 -7 -7 -21 -12 -33 -12
-12 0 -26 5 -33 12 -7 7 -12 21 -12 33 0 12 5 26 12 33 7 7 21 12 33 12 12 0
26 -5 33 -12z m120 -35 c2 -33 0 -43 -12 -43 -9 0 -16 12 -18 33 -2 17 -7 32
-13 32 -5 0 -11 -15 -13 -32 -5 -53 -32 -43 -32 11 l0 45 43 -2 42 -2 3 -42z
m85 40 c4 -3 2 -12 -4 -20 -9 -9 -8 -13 0 -13 17 0 13 -40 -4 -46 -21 -9 -67
5 -60 17 4 5 16 7 28 4 21 -5 21 -5 0 6 -22 12 -30 38 -16 52 8 9 48 9 56 0z
m157 -8 c0 -8 -7 -15 -15 -15 -10 0 -15 -10 -15 -30 0 -20 -5 -30 -15 -30 -11
0 -15 12 -15 45 0 43 1 45 30 45 20 0 30 -5 30 -15z m50 -21 c0 -21 4 -33 10
-29 6 3 10 19 10 36 0 19 5 29 15 29 11 0 15 -12 15 -44 l0 -44 -37 0 c-43 0
-53 10 -53 56 0 25 4 32 20 32 16 0 20 -7 20 -36z m148 18 c3 -9 -3 -13 -19
-10 -18 2 -24 -2 -24 -17 0 -15 6 -19 24 -17 16 3 22 -1 19 -10 -5 -16 -48
-22 -67 -9 -7 5 -13 21 -13 36 0 15 6 31 13 36 19 13 62 7 67 -9z m122 -27 c0
-33 -4 -45 -15 -45 -11 0 -15 12 -15 45 0 33 4 45 15 45 11 0 15 -12 15 -45z
m50 26 c0 -29 18 -35 22 -9 2 13 11 24 20 26 16 3 16 0 2 -42 -20 -59 -46 -62
-62 -7 -15 49 -15 51 3 51 8 0 15 -9 15 -19z m148 -8 c3 -19 -1 -23 -22 -23
-14 0 -26 -4 -26 -10 0 -5 8 -9 18 -7 9 1 19 -2 22 -8 3 -5 -7 -11 -21 -13
-28 -3 -59 20 -59 43 0 44 82 61 88 18z m106 10 c6 -15 8 -15 20 2 7 10 18 16
23 14 15 -5 -27 -109 -49 -123 -24 -15 -34 0 -15 21 14 16 14 22 1 52 -8 18
-14 37 -14 42 0 16 28 10 34 -8z m96 2 c0 -8 -7 -15 -15 -15 -8 0 -15 7 -15
15 0 8 7 15 15 15 8 0 15 -7 15 -15z m-1787 -60 c1 -5 -6 -11 -15 -13 -11 -2
-18 3 -18 13 0 17 30 18 33 0z m1787 0 c0 -8 -7 -15 -15 -15 -8 0 -15 7 -15
15 0 8 7 15 15 15 8 0 15 -7 15 -15z m-1672 -247 c24 -3 27 -8 30 -45 2 -26
-1 -43 -7 -43 -6 0 -11 18 -11 40 0 59 -33 48 -43 -15 -2 -16 -4 4 -4 45 0 41
2 63 4 48 3 -20 11 -28 31 -30z m322 27 c0 -20 5 -25 24 -25 26 0 36 -16 36
-61 0 -42 -18 -36 -22 9 -2 25 -8 37 -18 37 -10 0 -16 -12 -18 -37 -5 -66 -22
-41 -22 32 0 40 4 70 10 70 6 0 10 -11 10 -25z m202 -45 c2 -44 -1 -69 -7 -67
-13 5 -19 137 -6 137 5 0 11 -32 13 -70z m608 46 c0 -19 6 -25 28 -28 24 -3
27 -7 30 -45 2 -24 -1 -43 -7 -43 -5 0 -11 17 -13 38 -2 25 -8 37 -18 37 -10
0 -16 -12 -18 -37 -5 -66 -22 -41 -22 32 0 40 4 70 10 70 6 0 10 -11 10 -24z
m464 -26 c28 0 46 -18 46 -46 0 -28 -21 -45 -54 -42 -26 2 -26 3 -25 73 1 38
4 58 6 43 3 -21 10 -28 27 -28z m1116 -18 l0 -69 -32 -1 c-39 -1 -58 13 -58
43 0 29 24 49 50 42 17 -4 20 0 20 24 0 16 5 29 10 29 6 0 10 -29 10 -68z
m1502 -2 c2 -51 0 -70 -9 -70 -9 0 -13 21 -13 70 0 91 17 91 22 0z m-4395 8
l9 -53 14 43 c16 51 31 50 46 -4 12 -41 15 -38 29 34 4 17 11 32 16 32 6 0 8
-8 5 -17 -3 -10 -8 -31 -11 -48 -12 -56 -17 -66 -28 -62 -6 2 -16 21 -22 43
l-12 39 -13 -42 c-7 -24 -19 -43 -25 -43 -7 0 -17 25 -24 57 -13 68 -13 73 -2
73 4 0 12 -24 18 -52z m2273 42 c0 -5 -4 -10 -10 -10 -5 0 -10 5 -10 10 0 6 5
10 10 10 6 0 10 -4 10 -10z m1500 0 c0 -5 -4 -10 -10 -10 -5 0 -10 5 -10 10 0
6 5 10 10 10 6 0 10 -4 10 -10z m353 3 c-27 -4 -33 -9 -33 -29 0 -19 5 -24 28
-25 l27 -2 -27 -4 c-22 -3 -28 -10 -28 -28 0 -19 6 -24 33 -28 28 -3 26 -4
-10 -5 l-43 -2 0 65 0 65 43 -2 c36 -1 38 -2 10 -5z m407 -3 c0 -5 -4 -10 -10
-10 -5 0 -10 5 -10 10 0 6 5 10 10 10 6 0 10 -4 10 -10z m-3272 -31 c15 -1 15
-2 0 -6 -12 -3 -18 -14 -18 -33 0 -17 7 -33 18 -39 15 -9 15 -10 -5 -11 -20 0
-23 5 -23 40 0 25 -5 40 -12 41 -10 0 -10 2 0 6 6 2 13 12 13 21 1 15 2 15 6
0 2 -10 12 -19 21 -19z m960 0 c15 -1 15 -2 0 -6 -12 -3 -18 -14 -18 -33 0
-17 7 -33 18 -39 15 -9 15 -10 -5 -11 -20 0 -23 5 -23 40 0 25 -5 40 -12 41
-10 0 -10 2 0 6 6 2 13 12 13 21 1 15 2 15 6 0 2 -10 12 -19 21 -19z m302 16
c0 -8 8 -16 18 -16 16 -1 16 -2 0 -6 -21 -5 -25 -68 -5 -77 6 -3 3 -5 -8 -3
-15 2 -21 11 -23 37 -2 19 -9 38 -15 42 -9 6 -9 8 1 8 6 0 12 7 12 15 0 8 5
15 10 15 6 0 10 -7 10 -15z m858 -16 c15 -1 15 -2 0 -6 -12 -3 -18 -14 -18
-33 0 -17 7 -33 18 -39 15 -9 15 -10 -5 -11 -22 0 -25 5 -37 71 -2 9 1 25 7
35 10 18 12 18 15 2 2 -10 11 -19 20 -19z m340 0 c15 -1 15 -2 0 -6 -12 -3
-18 -14 -18 -33 0 -17 7 -33 18 -39 15 -9 15 -10 -5 -11 -20 0 -23 5 -23 40 0
25 -5 40 -12 41 -10 0 -10 2 0 6 6 2 13 12 13 21 1 15 2 15 6 0 2 -10 12 -19
21 -19z m-2672 -12 c-3 -33 -14 -47 -37 -47 -10 0 -19 -4 -19 -10 0 -5 13 -10
28 -10 36 0 44 -8 31 -32 -8 -14 -19 -18 -42 -16 -28 3 -32 7 -32 33 0 67 9
90 40 96 17 4 31 7 32 8 1 0 1 -9 -1 -22z m-738 -14 c3 -20 -1 -23 -28 -23
-21 0 -30 -4 -27 -12 2 -7 16 -12 31 -11 14 1 24 -2 21 -8 -4 -5 -17 -9 -31
-9 -32 0 -51 38 -34 69 16 30 64 26 68 -6z m100 -20 c2 -26 -1 -43 -7 -43 -6
0 -11 18 -11 40 0 59 -33 48 -43 -15 -3 -22 -4 -18 -6 16 -1 46 -1 46 32 45
30 -1 32 -3 35 -43z m240 35 c23 -23 13 -38 -24 -38 -31 0 -35 -2 -24 -15 8
-10 21 -13 38 -8 17 4 23 2 18 -6 -9 -15 -49 -14 -64 1 -26 26 -7 78 28 78 9
0 21 -5 28 -12z m148 1 c30 -24 10 -79 -28 -79 -11 0 -18 -7 -18 -20 0 -11 -4
-20 -10 -20 -6 0 -10 28 -10 63 0 61 1 63 26 65 15 1 33 -3 40 -9z m51 -56
c-2 -16 -4 -5 -4 22 0 28 2 40 4 28 2 -13 2 -35 0 -50z m101 20 c2 -26 -1 -43
-7 -43 -6 0 -11 18 -11 41 0 52 -24 48 -28 -4 -4 -52 -22 -46 -22 7 0 42 1 43
33 42 30 -1 32 -3 35 -43z m240 35 c7 -7 12 -21 12 -33 0 -47 -62 -63 -81 -21
-22 47 33 90 69 54z m280 -15 c3 -20 -1 -23 -28 -23 -21 0 -30 -4 -27 -12 2
-7 16 -12 31 -11 14 1 24 -2 21 -8 -9 -13 -49 -11 -63 3 -16 16 -15 51 0 66
21 21 63 10 66 -15z m65 17 c-18 -7 -23 -17 -23 -45 0 -19 -4 -35 -10 -35 -5
0 -10 20 -10 45 0 44 1 45 33 44 29 0 30 -1 10 -9z m87 -1 c0 -6 -9 -8 -20 -4
-30 9 -25 -14 6 -25 16 -7 24 -16 22 -28 -4 -20 -46 -29 -62 -12 -8 9 -6 11
11 6 31 -10 39 12 9 24 -25 9 -34 29 -19 43 10 11 53 8 53 -4z m288 -1 c23
-23 13 -38 -24 -38 -31 0 -35 -2 -24 -15 8 -10 21 -13 38 -8 17 4 23 2 18 -6
-9 -15 -49 -14 -64 1 -26 26 -7 78 28 78 9 0 21 -5 28 -12z m153 -9 c16 -31
-3 -69 -36 -69 -18 0 -25 -5 -25 -20 0 -11 -4 -20 -10 -20 -6 0 -10 28 -10 65
l0 65 35 0 c25 0 37 -6 46 -21z m93 5 c3 -9 6 -28 6 -43 0 -25 -4 -28 -35 -29
-19 -1 -37 3 -40 9 -9 14 14 39 37 39 11 0 18 5 15 13 -2 6 -14 11 -26 10 -13
-2 -20 1 -16 7 10 16 52 12 59 -6z m116 -29 c0 -25 -4 -45 -10 -45 -5 0 -10
20 -10 45 0 25 5 45 10 45 6 0 10 -20 10 -45z m98 18 c3 -20 -1 -23 -28 -23
-21 0 -30 -4 -27 -12 2 -7 16 -12 31 -11 14 1 24 -2 21 -8 -9 -13 -49 -11 -63
3 -16 16 -15 51 0 66 21 21 63 10 66 -15z m94 14 c11 -17 10 -77 -1 -77 -6 0
-11 17 -13 38 -2 25 -8 37 -18 37 -10 0 -16 -12 -18 -37 -4 -53 -22 -48 -22 5
0 43 1 44 32 45 18 0 36 -5 40 -11z m212 -3 c3 -9 6 -28 6 -43 0 -25 -4 -28
-35 -29 -19 -1 -37 3 -40 9 -9 14 14 39 37 39 11 0 18 5 15 13 -2 6 -14 11
-26 10 -13 -2 -20 1 -16 7 10 16 52 12 59 -6z m104 -31 c2 -26 -1 -43 -7 -43
-6 0 -11 18 -11 40 0 59 -33 48 -43 -15 -3 -22 -4 -18 -6 16 -1 46 -1 46 32
45 30 -1 32 -3 35 -43z m242 37 c8 -5 11 -12 7 -16 -3 -4 -13 -1 -21 5 -20 17
-36 6 -36 -24 0 -28 17 -42 33 -26 14 14 27 14 27 1 0 -16 -49 -23 -65 -10
-44 37 6 101 55 70z m98 -2 c7 -7 12 -21 12 -33 0 -47 -62 -63 -81 -21 -22 47
33 90 69 54z m106 -4 c9 -24 7 -74 -3 -74 -6 0 -11 17 -13 38 -2 25 -8 37 -18
37 -10 0 -16 -12 -18 -37 -4 -53 -22 -47 -22 7 0 44 0 45 34 45 22 0 36 -6 40
-16z m86 5 c0 -6 -9 -8 -20 -4 -30 9 -25 -14 6 -25 16 -7 24 -16 22 -28 -4
-20 -46 -29 -62 -12 -8 9 -6 11 11 6 31 -10 39 12 9 24 -25 9 -34 29 -19 43
10 11 53 8 53 -4z m138 0 c-12 -6 -18 -22 -18 -44 0 -19 -4 -35 -10 -35 -5 0
-10 19 -10 43 0 39 2 43 28 45 23 1 24 0 10 -9z m54 -26 c2 -26 8 -38 18 -38
10 0 16 12 18 38 4 52 22 47 22 -7 l0 -44 -37 1 c-37 2 -38 3 -41 45 -2 23 1
42 7 42 5 0 11 -17 13 -37z m148 27 c8 -5 11 -12 7 -16 -3 -4 -13 -1 -21 5
-20 17 -36 6 -36 -24 0 -28 17 -42 33 -26 14 14 27 14 27 1 0 -16 -49 -23 -65
-10 -44 37 6 101 55 70z m120 -35 c0 -25 -4 -45 -10 -45 -5 0 -10 20 -10 45 0
25 5 45 10 45 6 0 10 -20 10 -45z m44 13 l14 -33 12 33 c7 17 16 32 22 32 6 0
7 -8 3 -17 -4 -10 -12 -30 -17 -45 -5 -16 -14 -28 -19 -28 -8 0 -39 63 -39 81
0 18 10 8 24 -23z m134 20 c23 -23 13 -38 -24 -38 -31 0 -35 -2 -24 -15 8 -10
21 -13 38 -8 17 4 23 2 18 -6 -9 -15 -49 -14 -64 1 -26 26 -7 78 28 78 9 0 21
-5 28 -12z m247 -5 c6 -17 7 -17 16 0 6 9 14 17 20 17 5 0 4 -9 -3 -20 -10
-16 -10 -24 0 -41 17 -26 7 -39 -11 -15 -12 16 -14 16 -26 2 -8 -9 -18 -16
-24 -16 -5 0 -2 9 8 20 15 17 16 24 7 45 -6 14 -8 25 -3 25 5 0 12 -8 16 -17z
m146 -4 c16 -31 -3 -69 -36 -69 -18 0 -25 -5 -25 -20 0 -11 -4 -20 -10 -20 -6
0 -10 28 -10 65 l0 65 35 0 c25 0 37 -6 46 -21z m143 5 c3 -9 6 -28 6 -43 0
-25 -4 -28 -35 -29 -19 -1 -37 3 -40 9 -9 14 14 39 37 39 11 0 18 5 15 13 -2
6 -14 11 -26 10 -13 -2 -20 1 -16 7 10 16 52 12 59 -6z m46 -29 c0 -25 -4 -45
-10 -45 -5 0 -10 20 -10 45 0 25 5 45 10 45 6 0 10 -20 10 -45z m98 -2 c2 -26
-1 -43 -7 -43 -6 0 -11 18 -11 41 0 52 -24 48 -28 -4 -4 -52 -22 -46 -22 7 0
42 1 43 33 42 30 -1 32 -3 35 -43z m140 27 c5 -13 3 -13 -11 -1 -14 11 -20 11
-32 1 -19 -16 -19 -34 0 -50 12 -10 19 -10 27 -2 17 17 33 15 18 -3 -26 -31
-72 -12 -72 30 0 15 6 31 13 36 20 13 52 7 57 -11z m103 -1 c16 -30 -3 -69
-34 -69 -29 0 -47 17 -47 45 0 45 60 63 81 24z m97 -26 c2 -26 -1 -43 -7 -43
-6 0 -11 18 -11 41 0 52 -24 48 -28 -4 -4 -52 -22 -46 -22 7 0 42 1 43 33 42
30 -1 32 -3 35 -43z m-3298 -37 c0 -8 -4 -18 -10 -21 -5 -3 -10 3 -10 14 0 12
5 21 10 21 6 0 10 -6 10 -14z m2330 4 c0 -5 -4 -10 -10 -10 -5 0 -10 5 -10 10
0 6 5 10 10 10 6 0 10 -4 10 -10z m-3980 -198 l0 -69 -35 -1 c-26 -1 -37 4
-46 20 -16 30 3 68 36 68 20 0 25 5 25 25 0 14 5 25 10 25 6 0 10 -29 10 -68z
m1390 0 l0 -69 -35 -1 c-26 -1 -37 4 -46 20 -16 30 3 68 36 68 20 0 25 5 25
25 0 14 5 25 10 25 6 0 10 -29 10 -68z m580 -2 l0 -70 -35 0 c-28 0 -38 5 -44
23 -12 33 2 62 33 65 20 3 26 9 26 28 0 13 5 24 10 24 6 0 10 -30 10 -70z
m332 0 c2 -51 0 -70 -9 -70 -9 0 -13 21 -13 70 0 91 17 91 22 0z m1452 20 c28
0 46 -18 46 -46 0 -28 -21 -45 -54 -42 -26 2 -26 3 -25 73 1 38 4 58 6 43 3
-21 10 -28 27 -28z m-3714 30 c0 -5 -4 -10 -10 -10 -5 0 -10 5 -10 10 0 6 5
10 10 10 6 0 10 -4 10 -10z m290 0 c0 -5 -4 -10 -10 -10 -5 0 -10 5 -10 10 0
6 5 10 10 10 6 0 10 -4 10 -10z m2858 -18 c2 -13 -2 -29 -8 -37 -8 -10 -8 -19
-1 -34 13 -24 14 -31 2 -31 -5 0 -14 14 -20 30 -7 20 -17 30 -30 30 -17 0 -21
-6 -21 -30 0 -16 -4 -30 -10 -30 -6 0 -10 29 -10 66 l0 65 48 -3 c40 -3 47 -6
50 -26z m-968 -6 c0 -1 -5 -17 -11 -35 -8 -23 -17 -31 -36 -31 -13 0 -21 -4
-18 -10 3 -5 17 -10 30 -10 29 0 41 -16 25 -35 -15 -18 -54 -19 -67 -2 -6 6
-7 34 -4 62 5 45 9 50 36 56 41 9 45 9 45 5z m371 -32 c-5 -19 -15 -30 -29
-32 -33 -5 -26 -22 9 -22 26 0 30 -3 27 -22 -2 -19 -9 -23 -38 -23 l-35 0 0
53 c0 58 6 68 45 74 32 5 31 7 21 -28z m295 13 c-3 -33 -14 -47 -37 -47 -10 0
-19 -4 -19 -10 0 -5 13 -10 28 -10 36 0 44 -8 31 -32 -8 -14 -19 -18 -42 -16
-28 3 -32 7 -32 33 0 67 9 90 40 96 17 4 31 7 32 8 1 0 1 -9 -1 -22z m-2846
-32 c0 -25 -4 -45 -10 -45 -5 0 -10 20 -10 45 0 25 5 45 10 45 6 0 10 -20 10
-45z m86 34 c4 -7 0 -9 -14 -5 -31 10 -37 -13 -7 -24 17 -7 25 -16 23 -28 -4
-20 -46 -29 -62 -12 -8 10 -5 11 17 6 20 -5 27 -3 27 9 0 8 -6 15 -14 15 -18
0 -39 27 -31 40 8 13 52 13 61 -1z m152 -36 c2 -26 -1 -43 -7 -43 -6 0 -11 18
-11 41 0 52 -24 48 -28 -4 -4 -48 -20 -48 -24 1 -2 25 -8 37 -18 37 -10 0 -16
-12 -18 -37 -4 -53 -22 -47 -22 7 l0 45 63 -3 62 -2 3 -42z m52 2 c0 -25 -4
-45 -10 -45 -5 0 -10 20 -10 45 0 25 5 45 10 45 6 0 10 -20 10 -45z m80 34 c0
-6 -9 -8 -20 -4 -30 9 -25 -14 6 -25 16 -7 24 -16 22 -28 -4 -20 -46 -29 -62
-12 -8 9 -6 11 11 6 31 -10 39 12 9 24 -25 9 -34 29 -19 43 10 11 53 8 53 -4z
m86 0 c4 -7 0 -9 -14 -5 -30 10 -37 -12 -8 -24 29 -11 35 -37 10 -47 -8 -3
-25 0 -37 6 -21 11 -21 11 5 6 31 -6 48 12 21 22 -30 10 -42 24 -36 39 6 17
49 19 59 3z m41 -56 c-2 -16 -4 -5 -4 22 0 28 2 40 4 28 2 -13 2 -35 0 -50z
m48 37 c4 -16 10 -30 15 -30 5 0 11 14 15 30 4 17 11 30 16 30 12 0 12 -3 -7
-50 -23 -58 -33 -53 -58 28 -4 12 -3 22 3 22 5 0 12 -13 16 -30z m143 3 c3
-20 -1 -23 -28 -23 -21 0 -30 -4 -27 -12 2 -7 16 -12 31 -11 14 1 24 -2 21 -8
-9 -13 -49 -11 -63 3 -16 16 -15 51 0 66 21 21 63 10 66 -15z m143 6 c16 -30
-3 -69 -34 -69 -29 0 -47 17 -47 45 0 45 60 63 81 24z m67 10 c-12 -6 -18 -22
-18 -44 0 -19 -4 -35 -10 -35 -5 0 -10 19 -10 43 0 39 2 43 28 45 23 1 24 0
10 -9z m140 -9 c5 -13 3 -13 -11 -1 -14 11 -20 11 -32 1 -19 -16 -19 -34 0
-50 12 -10 19 -10 27 -2 17 17 33 15 18 -3 -26 -31 -72 -12 -72 30 0 15 6 31
13 36 20 13 52 7 57 -11z m103 -1 c16 -30 -3 -69 -34 -69 -29 0 -47 17 -47 45
0 45 60 63 81 24z m97 -26 c2 -26 -1 -43 -7 -43 -6 0 -11 18 -11 41 0 52 -24
48 -28 -4 -4 -52 -22 -46 -22 7 0 42 1 43 33 42 30 -1 32 -3 35 -43z m210 20
c3 -20 -1 -23 -28 -23 -21 0 -30 -4 -27 -12 2 -7 16 -12 31 -11 14 1 24 -2 21
-8 -9 -13 -49 -11 -63 3 -16 16 -15 51 0 66 21 21 63 10 66 -15z m82 16 c0 -6
-9 -8 -20 -4 -30 9 -25 -14 6 -25 16 -7 24 -16 22 -28 -4 -20 -46 -29 -62 -12
-8 9 -6 11 11 6 31 -10 39 12 9 24 -25 9 -34 29 -19 43 10 11 53 8 53 -4z m98
-7 c3 -11 0 -12 -17 -3 -27 15 -41 7 -41 -24 0 -31 14 -39 41 -24 17 9 20 8
17 -3 -6 -18 -46 -23 -64 -8 -17 15 -18 52 -2 68 16 16 60 11 66 -6z m90 6
c23 -23 13 -38 -24 -38 -31 0 -35 -2 -24 -15 8 -9 22 -13 39 -9 23 5 24 4 8
-6 -39 -25 -74 1 -67 50 4 29 46 40 68 18z m100 -35 c2 -26 -1 -43 -7 -43 -6
0 -11 18 -11 41 0 52 -24 48 -28 -4 -4 -52 -22 -46 -22 7 0 42 1 43 33 42 30
-1 32 -3 35 -43z m149 -20 c-2 -16 -4 -5 -4 22 0 28 2 40 4 28 2 -13 2 -35 0
-50z m107 51 c9 -24 7 -74 -3 -74 -6 0 -11 17 -13 38 -2 25 -8 37 -18 37 -10
0 -16 -12 -18 -37 -4 -53 -22 -47 -22 7 0 44 0 45 34 45 22 0 36 -6 40 -16z
m284 -31 c3 -43 3 -43 -31 -43 -37 0 -54 19 -34 39 6 6 19 11 30 11 11 0 17 5
14 13 -2 6 -14 11 -26 10 -14 -2 -20 1 -16 8 4 5 19 9 33 7 24 -3 27 -8 30
-45z m100 0 c2 -26 -1 -43 -7 -43 -6 0 -11 18 -11 40 0 59 -33 48 -43 -15 -3
-22 -4 -18 -6 16 -1 46 -1 46 32 45 30 -1 32 -3 35 -43z m144 10 c2 -26 8 -38
18 -38 10 0 16 12 18 38 4 52 22 47 22 -7 l0 -44 -37 1 c-37 2 -38 3 -41 45
-2 23 1 42 7 42 5 0 11 -17 13 -37z m146 -9 c3 -40 3 -41 -30 -40 -46 1 -52
34 -8 42 38 8 34 30 -4 26 -19 -2 -25 1 -21 8 4 6 19 10 33 8 24 -3 27 -8 30
-44z m190 34 c23 -23 13 -38 -24 -38 -31 0 -35 -2 -24 -15 8 -9 22 -13 39 -9
23 5 24 4 8 -6 -39 -25 -74 1 -67 50 4 29 46 40 68 18z m300 0 c23 -23 13 -38
-24 -38 -31 0 -35 -2 -24 -15 8 -9 22 -13 39 -9 23 5 24 4 8 -6 -39 -25 -74 1
-67 50 4 29 46 40 68 18z m154 -2 c11 -16 10 -76 -1 -76 -6 0 -11 17 -13 38
-2 25 -8 37 -18 37 -10 0 -16 -12 -18 -37 -2 -21 -7 -38 -12 -38 -5 0 -10 17
-12 38 -2 20 -7 37 -13 37 -5 0 -11 -17 -13 -37 -4 -53 -22 -47 -22 7 l0 44
58 0 c31 -1 60 -6 64 -13z m96 2 c23 -23 13 -38 -24 -38 -31 0 -35 -2 -24 -15
8 -10 21 -13 38 -8 17 4 23 2 18 -6 -9 -15 -49 -14 -64 1 -26 26 -7 78 28 78
9 0 21 -5 28 -12z m160 -35 c2 -26 -1 -43 -7 -43 -6 0 -11 15 -11 33 0 19 -3
37 -7 40 -12 13 -33 -16 -34 -47 -2 -28 -2 -27 -8 9 -8 53 -35 55 -39 3 -4
-53 -22 -47 -22 7 l0 45 63 -3 62 -2 3 -42z m200 35 c23 -23 13 -38 -24 -38
-31 0 -35 -2 -24 -15 8 -10 21 -13 38 -8 17 4 23 2 18 -6 -9 -15 -49 -14 -64
1 -26 26 -7 78 28 78 9 0 21 -5 28 -12z m75 2 c-18 -7 -23 -17 -23 -45 0 -19
-4 -35 -10 -35 -5 0 -10 20 -10 45 0 44 1 45 33 44 29 0 30 -1 10 -9z m165
-17 c3 -20 -1 -23 -28 -23 -21 0 -30 -4 -27 -12 2 -7 16 -12 31 -11 14 1 24
-2 21 -8 -4 -5 -17 -9 -31 -9 -32 0 -51 38 -34 69 16 30 64 26 68 -6z m43 -10
l12 -38 11 32 c12 35 26 53 26 34 0 -21 -29 -81 -39 -81 -5 0 -16 20 -24 45
-9 25 -12 45 -7 45 5 0 14 -17 21 -37z m137 10 c3 -20 -1 -23 -28 -23 -21 0
-30 -4 -27 -12 2 -7 16 -12 31 -11 14 1 24 -2 21 -8 -4 -5 -17 -9 -31 -9 -32
0 -51 38 -34 69 16 30 64 26 68 -6z m65 12 c-12 -9 -23 -29 -26 -48 -3 -26 -4
-23 -5 13 -2 43 0 46 25 48 28 2 28 2 6 -13z m58 -17 l13 -32 14 33 c20 51 27
28 7 -26 -22 -58 -33 -73 -54 -73 -14 1 -14 2 2 11 21 12 22 35 2 83 -8 20
-11 36 -6 36 5 0 15 -14 22 -32z m140 11 c16 -30 -3 -69 -34 -69 -29 0 -47 17
-47 45 0 45 60 63 81 24z m97 -26 c2 -26 -1 -43 -7 -43 -6 0 -11 18 -11 41 0
52 -24 48 -28 -4 -4 -52 -22 -46 -22 7 0 42 1 43 33 42 30 -1 32 -3 35 -43z
m100 20 c3 -20 -1 -23 -28 -23 -21 0 -30 -4 -27 -12 2 -7 16 -12 31 -11 14 1
24 -2 21 -8 -4 -5 -17 -9 -31 -9 -32 0 -51 38 -34 69 16 30 64 26 68 -6z m87
-5 l7 -33 11 33 c11 35 25 41 33 15 15 -46 17 -47 26 -15 5 17 13 32 18 32 5
0 2 -20 -7 -45 -18 -53 -29 -57 -41 -12 l-8 32 -12 -32 c-15 -43 -26 -42 -40
6 -14 46 -15 51 -3 51 5 0 12 -15 16 -32z m-1835 -48 c0 -5 -4 -10 -10 -10 -5
0 -10 5 -10 10 0 6 5 10 10 10 6 0 10 -4 10 -10z m970 -4 c0 -8 -4 -18 -10
-21 -5 -3 -10 3 -10 14 0 12 5 21 10 21 6 0 10 -6 10 -14z m-2967 -411 c1 -5
-6 -11 -15 -13 -11 -2 -18 3 -18 13 0 17 30 18 33 0z m737 -45 c0 -33 4 -60
10 -60 6 0 10 -5 10 -11 0 -6 -10 -9 -22 -7 -21 3 -23 9 -26 71 -2 55 0 67 13
67 12 0 15 -13 15 -60z m90 51 c0 -5 -7 -11 -15 -15 -8 -3 -15 -10 -15 -16 0
-5 7 -10 15 -10 8 0 15 -4 15 -10 0 -5 -7 -10 -15 -10 -10 0 -15 -11 -15 -35
0 -24 -5 -35 -15 -35 -22 0 -25 101 -4 127 13 15 49 18 49 4z m760 -6 c0 -8
-7 -15 -15 -15 -8 0 -15 7 -15 15 0 8 7 15 15 15 8 0 15 -7 15 -15z m760 -53
l0 -69 -32 -1 c-39 -1 -58 13 -58 43 0 29 24 49 50 42 17 -4 20 0 20 24 0 16
5 29 10 29 6 0 10 -29 10 -68z m1082 -2 c2 -44 -1 -69 -7 -67 -13 5 -19 137
-6 137 5 0 11 -32 13 -70z m66 59 c-10 -5 -18 -17 -18 -24 0 -8 8 -16 18 -16
16 -1 16 -2 0 -6 -13 -3 -18 -15 -18 -44 0 -53 -18 -50 -22 4 -4 60 9 97 35
97 20 -1 20 -2 5 -11z m-4519 -17 c5 -10 6 -24 1 -32 -5 -7 -3 -21 3 -31 23
-36 -49 -69 -81 -37 -21 21 -13 29 26 23 33 -6 35 -5 20 8 -20 15 -24 37 -8
37 6 0 10 5 10 11 0 7 -9 9 -24 5 -28 -7 -40 2 -25 21 17 19 66 16 78 -5z
m135 -24 l25 -43 1 43 c0 30 4 42 15 42 12 0 15 -14 15 -65 0 -58 -2 -65 -19
-65 -13 0 -29 16 -45 43 l-26 42 0 -42 c0 -32 -4 -43 -15 -43 -12 0 -15 14
-15 65 0 57 2 65 19 65 12 0 29 -16 45 -42z m305 33 c21 -13 5 -29 -24 -23
-15 2 -25 0 -25 -7 0 -6 9 -11 19 -11 42 0 60 -50 27 -72 -18 -12 -63 -9 -75
5 -15 19 -4 27 30 20 38 -7 37 9 -1 24 -22 8 -30 18 -30 36 0 34 45 49 79 28z
m1160 -4 c15 -19 4 -27 -30 -20 -40 8 -36 -4 6 -21 36 -16 46 -41 23 -64 -16
-16 -63 -15 -77 1 -15 19 -4 27 30 20 38 -7 37 9 -1 24 -35 13 -47 37 -30 58
15 19 64 20 79 2z m442 -11 c16 -35 -3 -66 -41 -66 -23 0 -30 -4 -30 -20 0
-11 -7 -20 -15 -20 -12 0 -15 14 -15 65 l0 65 45 0 c38 0 47 -4 56 -24z m974
-28 c10 -29 20 -59 23 -65 2 -7 0 -13 -6 -13 -5 0 -12 9 -15 20 -3 14 -14 20
-32 20 -18 0 -29 -6 -32 -20 -5 -18 -23 -29 -23 -14 0 22 45 124 54 124 7 0
20 -24 31 -52z m245 42 c0 -5 -4 -10 -10 -10 -5 0 -10 5 -10 10 0 6 5 10 10
10 6 0 10 -4 10 -10z m740 0 c0 -5 -4 -10 -10 -10 -5 0 -10 5 -10 10 0 6 5 10
10 10 6 0 10 -4 10 -10z m-1460 -14 c0 -8 6 -17 13 -20 10 -5 10 -7 0 -12 -15
-7 -17 -40 -3 -49 18 -11 10 -26 -12 -23 -18 2 -24 12 -29 43 -7 40 3 75 21
75 6 0 10 -6 10 -14z m-1319 -43 c-5 -17 -16 -30 -32 -34 -23 -6 -23 -6 6 -10
24 -3 30 -9 30 -29 0 -27 -20 -36 -61 -26 -22 6 -23 10 -18 59 6 59 9 64 44
69 35 6 39 2 31 -29z m-933 15 c28 -28 7 -78 -32 -78 -33 0 -48 15 -48 45 0
41 51 62 80 33z m260 0 c27 -27 7 -78 -30 -78 -11 0 -18 -7 -18 -20 0 -11 -7
-20 -15 -20 -12 0 -15 14 -15 65 l0 65 33 0 c18 0 38 -5 45 -12z m102 -7 c5
-11 10 -31 10 -46 0 -25 -3 -26 -42 -23 -48 3 -59 26 -20 43 27 12 29 29 2 20
-11 -3 -20 -2 -20 3 0 28 55 30 70 3z m158 -28 c2 -34 0 -43 -12 -43 -11 0
-16 10 -16 30 0 17 -4 30 -10 30 -5 0 -10 -13 -10 -30 0 -20 -5 -30 -15 -30
-10 0 -15 10 -15 29 0 17 -4 33 -10 36 -6 4 -10 -8 -10 -29 0 -29 -4 -36 -20
-36 -17 0 -20 7 -20 45 l0 46 68 -3 67 -3 3 -42z m160 0 c2 -34 0 -43 -12 -43
-11 0 -16 10 -16 30 0 17 -4 30 -10 30 -5 0 -10 -13 -10 -30 0 -42 -28 -40
-32 3 -2 17 -7 32 -13 32 -5 0 -11 -15 -13 -32 -5 -53 -32 -43 -32 11 l0 44
68 -1 67 -2 3 -42z m52 2 c0 -33 -4 -45 -15 -45 -11 0 -15 12 -15 45 0 33 4
45 15 45 11 0 15 -12 15 -45z m108 -2 c2 -33 0 -43 -12 -43 -9 0 -16 12 -18
33 -2 17 -7 32 -13 32 -5 0 -11 -15 -13 -32 -5 -53 -32 -43 -32 11 l0 45 43
-2 42 -2 3 -42z m240 35 c28 -28 7 -78 -32 -78 -33 0 -48 15 -48 45 0 41 51
62 80 33z m92 1 c0 -5 -7 -12 -15 -15 -9 -4 -15 -19 -15 -35 0 -22 -5 -29 -20
-29 -17 0 -20 7 -20 44 0 44 0 44 35 44 19 0 35 -4 35 -9z m248 -16 c3 -19 -1
-23 -22 -23 -14 0 -26 -4 -26 -10 0 -5 8 -9 18 -7 9 1 19 -2 22 -8 3 -5 -7
-11 -21 -13 -28 -3 -59 20 -59 43 0 44 82 61 88 18z m422 15 c0 -5 -9 -12 -20
-15 -14 -4 -20 -14 -20 -34 0 -19 -5 -29 -15 -29 -11 0 -15 12 -15 44 0 44 0
44 35 44 19 0 35 -4 35 -10z m78 0 c28 -28 7 -78 -33 -78 -27 0 -45 18 -45 45
0 27 18 45 45 45 12 0 26 -5 33 -12z m164 -2 c14 -20 9 -76 -6 -76 -9 0 -16
12 -18 33 -2 17 -7 32 -13 32 -5 0 -11 -15 -13 -32 -5 -47 -32 -44 -32 3 0 21
-4 33 -10 29 -5 -3 -10 -19 -10 -36 0 -19 -5 -29 -15 -29 -11 0 -15 12 -15 45
l0 45 63 -2 c34 -1 65 -6 69 -12z m109 -7 c16 -31 -3 -69 -35 -69 -27 0 -56
23 -56 45 0 42 71 61 91 24z m129 -24 c0 -33 -4 -45 -15 -45 -11 0 -15 12 -15
45 0 33 4 45 15 45 11 0 15 -12 15 -45z m101 24 c16 -31 -3 -69 -35 -69 -27 0
-56 23 -56 45 0 42 71 61 91 24z m107 -26 c2 -34 0 -43 -12 -43 -11 0 -16 9
-16 29 0 17 -4 33 -10 36 -6 4 -10 -8 -10 -29 0 -29 -4 -36 -20 -36 -17 0 -20
7 -20 44 l0 45 43 -2 42 -2 3 -42z m52 32 c0 -8 -7 -15 -15 -15 -8 0 -15 7
-15 15 0 8 7 15 15 15 8 0 15 -7 15 -15z m202 -21 l12 -35 11 32 c6 18 17 35
23 37 8 2 6 -12 -5 -42 -10 -25 -22 -46 -28 -46 -6 0 -18 20 -27 45 -10 25
-13 45 -8 45 5 0 15 -16 22 -36z m136 24 c17 -17 15 -53 -3 -68 -8 -7 -25 -10
-40 -6 -24 6 -30 21 -25 56 4 29 46 40 68 18z m52 -33 c0 -25 -4 -45 -10 -45
-5 0 -10 20 -10 45 0 25 5 45 10 45 6 0 10 -20 10 -45z m248 18 c3 -20 -1 -23
-28 -23 -21 0 -30 -4 -27 -12 2 -7 16 -12 31 -11 14 1 24 -2 21 -8 -9 -13 -49
-11 -63 3 -16 16 -15 51 0 66 21 21 63 10 66 -15z m47 10 c6 -17 7 -17 16 0 6
9 15 17 20 17 6 0 3 -10 -5 -21 -13 -19 -13 -24 1 -45 9 -14 11 -24 5 -24 -6
0 -16 8 -22 18 -10 16 -10 16 -20 0 -6 -10 -15 -18 -21 -18 -5 0 -2 11 7 26
13 19 14 28 5 37 -13 13 -14 27 -2 27 5 0 12 -8 16 -17z m133 -1 c3 -11 0 -12
-17 -3 -27 15 -41 7 -41 -24 0 -31 14 -39 41 -24 17 9 20 8 17 -3 -6 -18 -46
-23 -64 -8 -17 15 -18 52 -2 68 16 16 60 11 66 -6z m90 6 c23 -23 13 -38 -24
-38 -31 0 -35 -2 -24 -15 8 -9 22 -13 39 -9 23 5 24 4 8 -6 -39 -25 -74 1 -67
50 4 29 46 40 68 18z m88 1 c4 -7 0 -9 -14 -5 -30 10 -37 -12 -8 -24 29 -11
35 -37 10 -47 -8 -3 -25 0 -37 6 -21 11 -21 11 5 6 31 -6 48 12 21 22 -30 10
-42 24 -36 39 6 17 49 19 59 3z m80 0 c4 -7 0 -9 -14 -5 -33 11 -35 -11 -2
-23 32 -11 37 -20 18 -39 -15 -15 -45 -16 -54 -1 -4 7 0 9 14 5 30 -10 37 12
8 24 -25 9 -34 29 -19 43 10 11 41 8 49 -4z m54 -34 c0 -25 -4 -45 -10 -45 -5
0 -10 20 -10 45 0 25 5 45 10 45 6 0 10 -20 10 -45z m42 9 l12 -35 11 32 c6
18 17 35 23 37 8 2 6 -12 -5 -42 -10 -25 -22 -46 -28 -46 -6 0 -18 20 -27 45
-10 25 -13 45 -8 45 5 0 15 -16 22 -36z m136 9 c3 -20 -1 -23 -28 -23 -21 0
-30 -4 -27 -12 2 -7 16 -12 31 -11 14 1 24 -2 21 -8 -4 -5 -17 -9 -31 -9 -32
0 -51 38 -34 69 16 30 64 26 68 -6z m128 16 c4 -7 0 -9 -14 -5 -30 10 -37 -12
-8 -24 29 -11 35 -37 10 -47 -8 -3 -25 0 -37 6 -21 11 -21 11 5 6 31 -6 48 12
21 22 -30 10 -42 24 -36 39 6 17 49 19 59 3z m92 -1 c23 -23 13 -38 -24 -38
-31 0 -35 -2 -24 -15 8 -10 21 -13 38 -8 17 4 23 2 18 -6 -9 -15 -49 -14 -64
1 -26 26 -7 78 28 78 9 0 21 -5 28 -12z m303 -9 c16 -31 -3 -69 -36 -69 -18 0
-25 -5 -25 -20 0 -11 -4 -20 -10 -20 -6 0 -10 28 -10 65 l0 65 35 0 c25 0 37
-6 46 -21z m67 10 c-12 -6 -18 -22 -18 -44 0 -19 -4 -35 -10 -35 -5 0 -10 19
-10 43 0 39 2 43 28 45 23 1 24 0 10 -9z m103 -10 c16 -30 -3 -69 -34 -69 -29
0 -47 17 -47 45 0 45 60 63 81 24z m-2951 -9 c0 -5 -13 -10 -30 -10 -16 0 -30
5 -30 10 0 6 14 10 30 10 17 0 30 -4 30 -10z m2668 -7 c-10 -2 -26 -2 -35 0
-10 3 -2 5 17 5 19 0 27 -2 18 -5z m-4538 -38 c0 -8 -7 -15 -15 -15 -8 0 -15
7 -15 15 0 8 7 15 15 15 8 0 15 -7 15 -15z m2820 0 c0 -8 -7 -15 -15 -15 -8 0
-15 7 -15 15 0 8 7 15 15 15 8 0 15 -7 15 -15z m-1900 -159 c0 -19 6 -25 28
-28 24 -3 27 -7 30 -45 2 -24 -1 -43 -7 -43 -5 0 -11 17 -13 38 -2 25 -8 37
-18 37 -10 0 -16 -12 -18 -37 -5 -66 -22 -41 -22 32 0 40 4 70 10 70 6 0 10
-11 10 -24z m1120 -18 c0 -41 0 -41 20 -23 11 10 22 16 25 13 3 -3 -1 -11 -10
-18 -13 -11 -12 -15 5 -38 11 -14 17 -28 14 -31 -3 -3 -13 4 -21 17 -19 27
-33 28 -33 2 0 -11 -4 -20 -10 -20 -6 0 -10 30 -10 70 0 40 4 70 10 70 6 0 10
-19 10 -42z m1272 -28 c2 -44 -1 -69 -7 -67 -13 5 -19 137 -6 137 5 0 11 -32
13 -70z m428 0 l0 -70 -35 0 c-28 0 -38 5 -44 23 -12 33 2 62 33 65 20 3 26 9
26 28 0 13 5 24 10 24 6 0 10 -30 10 -70z m800 2 l0 -69 -32 -1 c-39 -1 -58
13 -58 43 0 29 24 49 50 42 17 -4 20 0 20 24 0 16 5 29 10 29 6 0 10 -29 10
-68z m180 43 c0 -20 5 -25 24 -25 26 0 36 -16 36 -61 0 -42 -18 -36 -22 9 -2
25 -8 37 -18 37 -10 0 -16 -12 -18 -37 -5 -66 -22 -41 -22 32 0 40 4 70 10 70
6 0 10 -11 10 -25z m-3850 5 c8 -5 11 -12 7 -16 -3 -4 -13 -1 -22 6 -8 7 -22
10 -30 6 -26 -10 -16 -33 18 -42 54 -16 48 -74 -8 -74 -24 0 -52 16 -43 25 3
4 15 1 26 -6 16 -10 23 -10 36 0 20 17 13 28 -30 46 -19 8 -34 20 -34 27 0 33
47 49 80 28z m1870 0 c0 -5 -4 -10 -10 -10 -5 0 -10 5 -10 10 0 6 5 10 10 10
6 0 10 -4 10 -10z m750 0 c0 -5 -4 -10 -10 -10 -5 0 -10 5 -10 10 0 6 5 10 10
10 6 0 10 -4 10 -10z m480 0 c0 -5 -4 -10 -10 -10 -5 0 -10 5 -10 10 0 6 5 10
10 10 6 0 10 -4 10 -10z m358 -31 c15 -1 15 -2 0 -6 -12 -3 -18 -14 -18 -33 0
-17 7 -33 18 -39 15 -9 15 -10 -5 -11 -22 0 -25 5 -37 71 -2 9 1 25 7 35 10
18 12 18 15 2 2 -10 11 -19 20 -19z m-3638 7 c0 -1 -5 -17 -11 -35 -8 -23 -17
-31 -36 -31 -13 0 -21 -4 -18 -10 3 -5 17 -10 30 -10 29 0 41 -16 25 -35 -15
-18 -54 -19 -67 -2 -6 6 -7 34 -4 62 5 45 9 50 36 56 41 9 45 9 45 5z m3372
-32 c-6 -22 -15 -30 -35 -32 -36 -4 -24 -22 14 -22 39 0 42 -36 2 -46 -37 -10
-59 7 -54 42 2 16 5 38 6 49 1 11 3 23 4 27 1 5 57 16 68 13 1 -1 -1 -14 -5
-31z m-4136 15 c4 -7 0 -9 -14 -5 -30 10 -37 -12 -8 -24 29 -11 35 -37 10 -47
-8 -3 -25 0 -37 6 -21 11 -21 11 5 6 31 -6 48 12 21 22 -30 10 -42 24 -36 39
6 17 49 19 59 3z m105 -11 c16 -30 -3 -68 -36 -68 -18 0 -25 -5 -25 -20 0 -11
-4 -20 -10 -20 -6 0 -10 28 -10 63 l0 64 35 1 c26 1 37 -4 46 -20z m97 -25 c3
-43 3 -43 -31 -43 -37 0 -54 19 -34 39 6 6 19 11 30 11 11 0 17 5 14 13 -2 6
-14 11 -26 10 -14 -2 -20 1 -16 8 4 5 19 9 33 7 24 -3 27 -8 30 -45z m148 -3
l2 -45 -7 40 c-8 53 -35 55 -39 3 -4 -48 -22 -50 -22 -4 0 60 -35 56 -43 -4
-3 -31 -4 -30 -5 11 l-2 46 58 -1 57 -1 1 -45z m162 3 c2 -26 -1 -43 -7 -43
-6 0 -11 15 -11 33 0 19 -3 37 -7 40 -12 13 -33 -16 -34 -47 -2 -28 -2 -27 -8
9 -8 53 -35 55 -39 3 -4 -53 -22 -47 -22 7 l0 45 63 -3 62 -2 3 -42z m39 -20
c-2 -16 -4 -5 -4 22 0 28 2 40 4 28 2 -13 2 -35 0 -50z m107 51 c9 -24 7 -74
-3 -74 -6 0 -11 17 -13 38 -2 25 -8 37 -18 37 -10 0 -16 -12 -18 -37 -4 -53
-22 -47 -22 7 0 44 0 45 34 45 22 0 36 -6 40 -16z m490 0 c3 -9 6 -28 6 -43 0
-25 -4 -28 -35 -29 -19 -1 -37 3 -40 9 -9 14 14 39 37 39 11 0 18 5 15 13 -2
6 -14 11 -26 10 -13 -2 -20 1 -16 7 10 16 52 12 59 -6z m69 6 c-18 -7 -23 -17
-23 -45 0 -19 -4 -35 -10 -35 -5 0 -10 20 -10 45 0 44 1 45 33 44 29 0 30 -1
10 -9z m95 -2 c23 -23 13 -38 -24 -38 -31 0 -35 -2 -24 -15 8 -9 22 -13 39 -9
23 5 24 4 8 -6 -39 -25 -74 1 -67 50 4 29 46 40 68 18z m93 -20 l13 -32 14 33
c20 51 27 28 7 -26 -22 -58 -33 -73 -54 -73 -14 1 -14 2 2 11 21 12 22 35 2
83 -8 20 -11 36 -6 36 5 0 15 -14 22 -32z m137 20 c7 -7 12 -21 12 -33 0 -47
-62 -63 -81 -21 -22 47 33 90 69 54z m52 -29 c0 -52 24 -48 28 4 4 52 22 46
22 -6 0 -43 -1 -44 -32 -43 -31 1 -33 3 -36 44 -2 25 1 42 7 42 6 0 11 -18 11
-41z m123 31 c-18 -7 -23 -17 -23 -45 0 -19 -4 -35 -10 -35 -5 0 -10 20 -10
45 0 44 1 45 33 44 29 0 30 -1 10 -9z m87 -20 c0 -32 17 -32 24 0 7 39 23 38
34 -2 9 -33 11 -32 26 16 12 36 17 8 6 -33 -12 -46 -27 -53 -36 -16 -8 31 -22
33 -26 3 -5 -36 -26 -32 -37 9 -14 47 -14 56 -1 48 6 -3 10 -15 10 -25z m188
18 c17 -17 15 -53 -3 -68 -8 -7 -25 -10 -40 -6 -24 6 -30 21 -25 56 4 29 46
40 68 18z m75 2 c-18 -7 -23 -17 -23 -45 0 -19 -4 -35 -10 -35 -5 0 -10 20
-10 45 0 44 1 45 33 44 29 0 30 -1 10 -9z m235 -2 c17 -17 15 -53 -3 -68 -8
-7 -25 -10 -40 -6 -24 6 -30 21 -25 56 4 29 46 40 68 18z m75 2 c-18 -7 -23
-17 -23 -45 0 -19 -4 -35 -10 -35 -5 0 -10 20 -10 45 0 44 1 45 33 44 29 0 30
-1 10 -9z m133 -1 c4 -7 0 -9 -14 -5 -31 10 -37 -13 -7 -24 17 -7 25 -16 23
-28 -4 -20 -46 -29 -62 -12 -8 10 -5 11 17 6 20 -5 27 -3 27 9 0 8 -6 15 -14
15 -18 0 -39 27 -31 40 8 13 52 13 61 -1z m92 -1 c23 -23 13 -38 -24 -38 -31
0 -35 -2 -24 -15 8 -9 22 -13 39 -9 23 5 24 4 8 -6 -39 -25 -74 1 -67 50 4 29
46 40 68 18z m70 1 c-12 -6 -18 -22 -18 -44 0 -19 -4 -35 -10 -35 -5 0 -10 19
-10 43 0 39 2 43 28 45 23 1 24 0 10 -9z m54 -25 l12 -35 11 32 c6 18 17 35
23 37 8 2 6 -12 -5 -42 -10 -25 -22 -46 -28 -46 -6 0 -18 20 -27 45 -10 25
-13 45 -8 45 5 0 15 -16 22 -36z m88 -9 c0 -25 -4 -45 -10 -45 -5 0 -10 20
-10 45 0 25 5 45 10 45 6 0 10 -20 10 -45z m98 25 c4 -12 3 -13 -10 -2 -21 17
-48 5 -48 -23 0 -28 27 -40 48 -23 13 11 14 10 10 -2 -2 -8 -17 -16 -31 -18
-35 -4 -55 33 -37 67 13 26 60 26 68 1z m90 8 c23 -23 13 -38 -24 -38 -31 0
-35 -2 -24 -15 8 -10 21 -13 38 -8 17 4 23 2 18 -6 -9 -15 -49 -14 -64 1 -26
26 -7 78 28 78 9 0 21 -5 28 -12z m88 1 c4 -7 0 -9 -14 -5 -33 11 -35 -11 -2
-23 32 -11 37 -20 18 -39 -15 -15 -45 -16 -54 -1 -4 7 0 9 14 5 30 -10 37 12
8 24 -25 9 -34 29 -19 43 10 11 41 8 49 -4z m142 -1 c7 -7 12 -21 12 -33 0
-47 -62 -63 -81 -21 -22 47 33 90 69 54z m106 -4 c9 -24 7 -74 -3 -74 -6 0
-11 17 -13 38 -2 25 -8 37 -18 37 -10 0 -16 -12 -18 -37 -4 -53 -22 -47 -22 7
0 44 0 45 34 45 22 0 36 -6 40 -16z m97 -16 l13 -32 14 33 c20 51 27 28 7 -26
-22 -58 -33 -73 -54 -73 -14 1 -14 2 2 11 21 12 22 35 2 83 -8 20 -11 36 -6
36 5 0 15 -14 22 -32z m129 -13 c0 -25 -4 -45 -10 -45 -5 0 -10 20 -10 45 0
25 5 45 10 45 6 0 10 -20 10 -45z m98 -2 c2 -26 -1 -43 -7 -43 -6 0 -11 18
-11 40 0 59 -33 48 -43 -15 -3 -22 -4 -18 -6 16 -1 46 -1 46 32 45 30 -1 32
-3 35 -43z m250 20 c3 -20 -1 -23 -28 -23 -21 0 -30 -4 -27 -12 2 -7 16 -12
31 -11 14 1 24 -2 21 -8 -9 -13 -49 -11 -63 3 -16 16 -15 51 0 66 21 21 63 10
66 -15z m82 16 c0 -6 -9 -8 -20 -4 -30 9 -25 -14 6 -25 16 -7 24 -16 22 -28
-4 -20 -46 -29 -62 -12 -8 9 -6 11 11 6 31 -10 39 12 9 24 -25 9 -34 29 -19
43 10 11 53 8 53 -4z m50 -34 c0 -25 -4 -45 -10 -45 -5 0 -10 20 -10 45 0 25
5 45 10 45 6 0 10 -20 10 -45z m194 29 c9 -24 7 -74 -3 -74 -6 0 -11 17 -13
38 -2 25 -8 37 -18 37 -10 0 -16 -12 -18 -37 -4 -53 -22 -47 -22 7 0 44 0 45
34 45 22 0 36 -6 40 -16z m94 -30 c3 -40 3 -41 -30 -40 -46 1 -52 34 -8 42 38
8 34 30 -4 26 -19 -2 -25 1 -21 8 4 6 19 10 33 8 24 -3 27 -8 30 -44z m170 19
c3 -20 -1 -23 -28 -23 -21 0 -30 -4 -27 -12 2 -7 16 -12 31 -11 14 1 24 -2 21
-8 -9 -13 -49 -11 -63 3 -16 16 -15 51 0 66 21 21 63 10 66 -15z m250 9 c3
-11 0 -12 -17 -3 -27 15 -41 7 -41 -24 0 -31 14 -39 41 -24 17 9 20 8 17 -3
-6 -18 -46 -23 -64 -8 -17 15 -18 52 -2 68 16 16 60 11 66 -6z m196 2 c3 -9 6
-28 6 -43 0 -25 -4 -28 -35 -29 -19 -1 -37 3 -40 9 -9 14 14 39 37 39 11 0 18
5 15 13 -2 6 -14 11 -26 10 -13 -2 -20 1 -16 7 10 16 52 12 59 -6z m-4144 -64
c0 -5 -4 -10 -10 -10 -5 0 -10 5 -10 10 0 6 5 10 10 10 6 0 10 -4 10 -10z
m-4818 -55 c7 -37 -2 -75 -18 -75 -8 0 -31 7 -50 15 -47 19 -44 53 6 71 50 18
57 17 62 -11z m1370 0 c7 -37 -2 -75 -18 -75 -8 0 -31 7 -50 15 -47 19 -44 53
6 71 50 18 57 17 62 -11z m3270 -155 c2 -51 0 -70 -9 -70 -9 0 -13 21 -13 70
0 91 17 91 22 0z m-614 -27 c3 -43 3 -43 -31 -43 -37 0 -54 19 -34 39 6 6 19
11 30 11 11 0 17 5 14 13 -2 6 -14 11 -26 10 -14 -2 -20 1 -16 8 4 5 19 9 33
7 24 -3 27 -8 30 -45z m98 36 c17 -14 18 -51 2 -67 -7 -7 -22 -12 -34 -12 -15
0 -24 -7 -27 -22 -2 -13 -5 6 -6 42 -1 64 0 66 25 68 15 1 33 -3 40 -9z m115
-10 c16 -31 -3 -69 -36 -69 -18 0 -25 -5 -25 -20 0 -11 -4 -20 -10 -20 -6 0
-10 28 -10 65 l0 65 35 0 c25 0 37 -6 46 -21z m67 10 c-12 -6 -18 -22 -18 -44
0 -19 -4 -35 -10 -35 -5 0 -10 19 -10 43 0 39 2 43 28 45 23 1 24 0 10 -9z
m103 -10 c16 -30 -3 -69 -34 -69 -29 0 -47 17 -47 45 0 45 60 63 81 24z m41
-15 l12 -35 11 32 c6 18 17 35 23 37 8 2 6 -12 -5 -42 -10 -25 -22 -46 -28
-46 -6 0 -18 20 -27 45 -10 25 -13 45 -8 45 5 0 15 -16 22 -36z m136 -10 c3
-40 3 -41 -30 -40 -45 1 -52 34 -9 42 20 4 28 11 24 20 -3 9 -13 12 -31 7 -18
-4 -23 -3 -18 6 5 7 20 11 34 9 24 -3 27 -8 30 -44z m102 -34 c0 -5 -4 -10
-10 -10 -5 0 -10 5 -10 10 0 6 5 10 10 10 6 0 10 -4 10 -10z m470 -450 c0 -5
-4 -10 -10 -10 -14 0 -12 -27 3 -34 10 -5 10 -7 0 -12 -7 -3 -13 -21 -13 -40
0 -24 -5 -34 -15 -34 -10 0 -15 11 -15 35 0 28 -4 35 -20 35 -15 0 -20 -7 -20
-25 0 -14 5 -25 10 -25 6 0 10 -5 10 -11 0 -6 -10 -9 -22 -7 -17 2 -24 11 -26
33 -2 16 -9 34 -15 38 -9 6 -9 10 1 14 6 2 12 11 12 19 0 8 7 14 15 14 8 0 15
-7 15 -15 0 -8 9 -15 20 -15 13 0 20 7 20 18 0 10 3 22 7 25 10 11 43 8 43 -3z
m152 -57 c4 -78 4 -78 -17 -70 -21 9 -22 137 -1 137 11 0 15 -18 18 -67z m358
-3 l0 -70 -33 0 c-38 0 -57 15 -57 45 0 26 18 45 42 45 13 0 18 8 18 25 0 16
6 25 15 25 12 0 15 -14 15 -70z m350 16 c0 -30 5 -58 10 -61 17 -10 11 -25 -9
-25 -24 0 -31 19 -31 86 0 41 4 54 15 54 11 0 15 -13 15 -54z m255 45 c7 -12
-12 -24 -25 -16 -11 7 -4 25 10 25 5 0 11 -4 15 -9z m-2255 -39 c0 -21 5 -43
11 -49 9 -9 8 -16 -4 -27 -18 -18 -37 -21 -37 -6 0 6 -13 10 -30 10 -37 0 -37
11 -2 66 35 57 62 59 62 6z m216 3 c1 -16 5 -38 9 -48 11 -27 -13 -47 -56 -47
l-39 0 0 66 0 65 43 -3 c39 -3 42 -5 43 -33z m274 20 c10 -12 10 -21 0 -46
-10 -22 -10 -33 -1 -42 16 -16 14 -27 -8 -27 -12 0 -21 9 -25 25 -4 14 -13 25
-21 25 -9 0 -15 -10 -15 -25 0 -16 -6 -25 -15 -25 -12 0 -15 14 -15 65 l0 65
44 0 c26 0 48 -6 56 -15z m1260 -50 c0 -51 -3 -65 -15 -65 -12 0 -15 14 -15
65 0 51 3 65 15 65 12 0 15 -14 15 -65z m-1432 13 c22 -22 13 -38 -20 -38 -17
0 -28 -3 -24 -7 4 -5 16 -8 27 -8 30 0 27 -20 -4 -23 -34 -4 -57 13 -57 42 0
28 18 46 45 46 12 0 26 -5 33 -12z m270 -15 c3 -19 -1 -23 -22 -23 -14 0 -26
-4 -26 -10 0 -5 8 -9 18 -7 9 1 19 -2 22 -8 3 -5 -7 -11 -21 -13 -28 -3 -59
20 -59 43 0 44 82 61 88 18z m85 20 c4 -3 2 -12 -4 -20 -9 -10 -8 -13 0 -13 7
0 11 -10 9 -22 -2 -18 -10 -23 -32 -23 -16 0 -31 6 -34 14 -3 10 1 12 17 8 11
-3 19 -1 15 4 -3 5 -12 9 -20 9 -14 0 -20 31 -7 43 8 9 48 9 56 0z m105 -5
c27 -27 7 -78 -30 -78 -11 0 -18 -7 -18 -20 0 -11 -7 -20 -15 -20 -12 0 -15
14 -15 65 l0 65 33 0 c18 0 38 -5 45 -12z m100 0 c22 -22 13 -38 -20 -38 -17
0 -28 -3 -24 -7 4 -5 16 -8 27 -8 30 0 27 -20 -4 -23 -34 -4 -57 13 -57 42 0
28 18 46 45 46 12 0 26 -5 33 -12z m100 -3 c-2 -5 -8 -10 -15 -10 -7 0 -17 -5
-23 -11 -13 -13 3 -28 27 -29 25 0 17 -20 -8 -23 -28 -3 -59 20 -59 43 0 23
31 46 57 43 13 -2 22 -7 21 -13z m204 -17 c2 -18 8 -33 13 -33 6 0 11 15 13
33 5 52 32 42 32 -12 l0 -44 -37 0 c-43 0 -53 10 -53 56 0 21 5 32 14 32 9 0
16 -12 18 -32z m246 20 c7 -7 12 -27 12 -45 0 -32 -1 -33 -41 -33 -36 0 -40 2
-37 22 2 14 13 25 28 29 14 4 21 8 15 10 -18 4 -30 7 -38 8 -5 0 -5 6 -2 11 9
14 48 13 63 -2z m112 -7 c18 -34 13 -71 -10 -71 -16 0 -20 7 -20 36 0 21 -4
33 -10 29 -5 -3 -10 -19 -10 -36 0 -19 -5 -29 -15 -29 -11 0 -15 12 -15 45 0
45 0 45 35 45 24 0 37 -6 45 -19z m310 0 c18 -34 13 -71 -10 -71 -16 0 -20 7
-20 36 0 21 -4 33 -10 29 -5 -3 -10 -19 -10 -36 0 -19 -5 -29 -15 -29 -11 0
-15 12 -15 45 0 45 0 45 35 45 24 0 37 -6 45 -19z m100 9 c13 -8 12 -10 -1
-15 -9 -3 -22 -5 -30 -3 -8 2 -14 -5 -14 -17 0 -14 7 -20 22 -20 33 0 38 -13
8 -21 -34 -8 -59 5 -63 35 -6 42 39 66 78 41z m110 -20 c0 -16 5 -30 10 -30 6
0 10 14 10 30 0 23 4 30 20 30 17 0 20 -7 20 -44 l0 -45 -42 2 -43 2 -3 43
c-2 33 0 42 12 42 11 0 16 -10 16 -30z m143 23 c4 -3 2 -12 -4 -20 -9 -9 -8
-13 0 -13 17 0 13 -40 -4 -46 -21 -9 -67 5 -60 17 4 5 16 7 28 4 21 -5 21 -5
0 6 -22 12 -30 38 -16 52 8 9 48 9 56 0z m57 -38 c0 -38 -3 -45 -20 -45 -17 0
-20 7 -20 45 0 38 3 45 20 45 17 0 20 -7 20 -45z m45 18 l8 -28 6 25 c4 14 15
26 25 28 19 4 18 -4 -5 -65 -14 -37 -44 -29 -57 16 -15 49 -15 51 2 51 8 0 17
-12 21 -27z m143 0 c3 -19 -1 -23 -22 -23 -14 0 -26 -4 -26 -10 0 -5 8 -9 18
-7 9 1 19 -2 22 -8 3 -5 -7 -11 -21 -13 -28 -3 -59 20 -59 43 0 44 82 61 88
18z m52 12 c0 -8 -7 -15 -15 -15 -8 0 -15 7 -15 15 0 8 7 15 15 15 8 0 15 -7
15 -15z m-6464 -17 c-15 24 18 12 51 -20 31 -30 33 -31 33 -10 0 12 5 22 10
22 6 0 10 -24 10 -54 0 -44 -4 -58 -21 -69 -29 -21 -50 -12 -100 40 -38 39
-41 44 -19 38 25 -8 25 -8 6 13 -15 18 -17 24 -6 37 10 12 16 13 28 3 13 -10
14 -10 8 0z m990 0 c-13 22 20 13 44 -13 20 -22 25 -23 32 -10 16 28 28 15 28
-31 0 -98 -48 -113 -120 -38 -28 29 -37 44 -26 40 19 -7 19 -6 1 14 -16 18
-14 25 8 21 4 0 6 2 6 7 -3 20 3 23 18 11 11 -10 14 -10 9 -1z m3037 -43 c1
-5 -6 -11 -15 -13 -11 -2 -18 3 -18 13 0 17 30 18 33 0z m2437 0 c0 -8 -7 -15
-15 -15 -8 0 -15 7 -15 15 0 8 7 15 15 15 8 0 15 -7 15 -15z m-1938 -312 c8
-10 6 -13 -6 -13 -13 0 -16 12 -14 73 l2 72 3 -60 c2 -32 9 -65 15 -72z m38
63 c0 -42 4 -66 13 -70 6 -3 3 -5 -8 -3 -17 2 -20 11 -23 70 -2 42 1 67 8 67
6 0 10 -26 10 -64z m500 39 c0 -20 5 -25 25 -25 33 0 52 -38 36 -68 -9 -16
-20 -21 -46 -20 l-35 1 0 69 c0 39 4 68 10 68 6 0 10 -11 10 -25z m660 0 c0
-20 5 -25 24 -25 26 0 36 -16 36 -61 0 -42 -18 -36 -22 9 -2 25 -8 37 -18 37
-10 0 -16 -12 -18 -37 -5 -66 -22 -41 -22 32 0 40 4 70 10 70 6 0 10 -11 10
-25z m1350 -43 l0 -69 -32 -1 c-39 -1 -58 13 -58 43 0 29 24 49 50 42 17 -4
20 0 20 24 0 16 5 29 10 29 6 0 10 -29 10 -68z m42 -2 c2 -44 -1 -69 -7 -67
-13 5 -19 137 -6 137 5 0 11 -32 13 -70z m476 59 c-10 -5 -18 -17 -18 -24 0
-8 8 -16 18 -16 16 -1 16 -2 0 -6 -13 -3 -18 -15 -18 -44 0 -53 -18 -50 -22 4
-4 60 9 97 35 97 20 -1 20 -2 5 -11z m162 -13 c0 -18 6 -25 23 -28 19 -3 22
-9 23 -48 l2 -45 -7 40 c-8 53 -35 55 -39 3 -5 -66 -22 -41 -22 32 0 40 4 70
10 70 6 0 10 -11 10 -24z m-3742 7 c-27 -4 -28 -7 -30 -66 l-2 -62 -3 62 c-3
54 -7 62 -26 66 -12 2 3 4 33 4 30 0 43 -2 28 -4z m1592 -3 c0 -5 -4 -10 -10
-10 -5 0 -10 5 -10 10 0 6 5 10 10 10 6 0 10 -4 10 -10z m2350 0 c0 -5 -4 -10
-10 -10 -5 0 -10 5 -10 10 0 6 5 10 10 10 6 0 10 -4 10 -10z m620 0 c0 -5 -4
-10 -10 -10 -5 0 -10 5 -10 10 0 6 5 10 10 10 6 0 10 -4 10 -10z m-4260 -15
c0 -8 8 -16 18 -16 16 -1 16 -2 0 -6 -13 -3 -18 -14 -18 -38 0 -23 5 -35 18
-39 10 -3 6 -4 -8 -3 -21 2 -26 8 -28 37 -2 19 -9 38 -15 42 -9 6 -9 8 1 8 6
0 12 7 12 15 0 8 5 15 10 15 6 0 10 -7 10 -15z m1358 -16 c15 -1 15 -2 0 -6
-12 -3 -18 -14 -18 -33 0 -17 7 -33 18 -39 15 -9 15 -10 -5 -11 -22 0 -25 5
-37 71 -2 9 1 25 7 35 10 18 12 18 15 2 2 -10 11 -19 20 -19z m762 16 c0 -8 8
-16 18 -16 16 -1 16 -2 0 -6 -21 -5 -25 -68 -5 -77 6 -3 3 -5 -8 -3 -15 2 -21
11 -23 37 -2 19 -9 38 -15 42 -9 6 -9 8 1 8 6 0 12 7 12 15 0 8 5 15 10 15 6
0 10 -7 10 -15z m1268 -16 c15 -1 15 -2 0 -6 -12 -3 -18 -14 -18 -33 0 -17 7
-33 18 -39 15 -9 15 -10 -5 -11 -22 0 -25 5 -37 71 -2 9 1 25 7 35 10 18 12
18 15 2 2 -10 11 -19 20 -19z m-902 -12 c-3 -33 -14 -47 -37 -47 -10 0 -19 -4
-19 -10 0 -5 13 -10 28 -10 36 0 44 -8 31 -32 -8 -14 -19 -18 -42 -16 -28 3
-32 7 -32 33 0 67 9 90 40 96 17 4 31 7 32 8 1 0 1 -9 -1 -22z m-2733 -2 c-12
-9 -23 -29 -26 -48 -3 -26 -4 -23 -5 13 -2 43 0 46 25 48 28 2 28 2 6 -13z
m95 3 c23 -23 13 -38 -24 -38 -31 0 -35 -2 -24 -15 8 -10 21 -13 38 -8 17 4
23 2 18 -6 -9 -15 -49 -14 -64 1 -26 26 -7 78 28 78 9 0 21 -5 28 -12z m100
-35 c3 -43 3 -43 -31 -43 -37 0 -54 19 -34 39 6 6 19 11 30 11 11 0 17 5 14
13 -2 6 -14 11 -26 10 -14 -2 -20 1 -16 8 4 5 19 9 33 7 24 -3 27 -8 30 -45z
m210 0 c3 -43 3 -43 -31 -43 -37 0 -54 19 -34 39 6 6 19 11 30 11 11 0 17 5
14 13 -2 6 -14 11 -26 10 -14 -2 -20 1 -16 8 4 5 19 9 33 7 24 -3 27 -8 30
-45z m288 -3 l2 -45 -7 40 c-8 53 -35 55 -39 3 -4 -48 -22 -50 -22 -4 0 60
-35 56 -43 -4 -3 -31 -4 -30 -5 11 l-2 46 58 -1 57 -1 1 -45z m102 38 c23 -23
13 -38 -24 -38 -31 0 -35 -2 -24 -15 8 -9 22 -13 39 -9 23 5 24 4 8 -6 -39
-25 -74 1 -67 50 4 29 46 40 68 18z m154 -2 c11 -16 10 -76 -1 -76 -6 0 -11
17 -13 38 -2 25 -8 37 -18 37 -10 0 -16 -12 -18 -37 -2 -21 -7 -38 -12 -38 -5
0 -10 17 -12 38 -2 20 -7 37 -13 37 -5 0 -11 -17 -13 -37 -4 -53 -22 -47 -22
7 l0 44 58 0 c31 -1 60 -6 64 -13z m206 2 c23 -23 13 -38 -24 -38 -31 0 -35
-2 -24 -15 8 -9 22 -13 39 -9 23 5 24 4 8 -6 -39 -25 -74 1 -67 50 4 29 46 40
68 18z m70 1 c-12 -6 -18 -22 -18 -44 0 -19 -4 -35 -10 -35 -5 0 -10 19 -10
43 0 39 2 43 28 45 23 1 24 0 10 -9z m88 0 c4 -7 0 -9 -14 -5 -30 10 -37 -12
-8 -24 29 -11 35 -37 10 -47 -8 -3 -25 0 -37 6 -21 11 -21 11 5 6 31 -6 48 12
21 22 -30 10 -42 24 -36 39 6 17 49 19 59 3z m89 -21 l7 -33 11 33 c11 35 25
41 33 15 15 -46 17 -47 26 -15 5 17 13 32 18 32 5 0 2 -20 -7 -45 -18 -53 -29
-57 -41 -12 l-8 32 -12 -32 c-15 -43 -26 -42 -40 6 -14 46 -15 51 -3 51 5 0
12 -15 16 -32z m135 -13 c0 -25 -4 -45 -10 -45 -5 0 -10 20 -10 45 0 25 5 45
10 45 6 0 10 -20 10 -45z m283 30 c-12 -9 -23 -29 -26 -48 -3 -26 -4 -23 -5
13 -2 43 0 46 25 48 28 2 28 2 6 -13z m95 3 c23 -23 13 -38 -24 -38 -31 0 -35
-2 -24 -15 8 -10 21 -13 38 -8 17 4 23 2 18 -6 -9 -15 -49 -14 -64 1 -26 26
-7 78 28 78 9 0 21 -5 28 -12z m88 1 c4 -7 0 -9 -14 -5 -33 11 -35 -11 -2 -23
32 -11 37 -20 18 -39 -15 -15 -45 -16 -54 -1 -4 7 0 9 14 5 30 -10 37 12 8 24
-25 9 -34 29 -19 43 10 11 41 8 49 -4z m100 0 c30 -24 10 -79 -28 -79 -11 0
-18 -7 -18 -20 0 -11 -4 -20 -10 -20 -6 0 -10 28 -10 63 0 61 1 63 26 65 15 1
33 -3 40 -9z m102 -1 c23 -23 13 -38 -24 -38 -31 0 -35 -2 -24 -15 8 -10 21
-13 38 -8 17 4 23 2 18 -6 -9 -15 -49 -14 -64 1 -26 26 -7 78 28 78 9 0 21 -5
28 -12z m102 2 c8 -5 11 -12 7 -16 -3 -4 -13 -1 -21 5 -20 17 -36 6 -36 -24 0
-28 17 -42 33 -26 14 14 27 14 27 1 0 -16 -49 -23 -65 -10 -44 37 6 101 55 70z
m233 0 c-18 -7 -23 -17 -23 -45 0 -19 -4 -35 -10 -35 -5 0 -10 20 -10 45 0 44
1 45 33 44 29 0 30 -1 10 -9z m95 -2 c23 -23 13 -38 -24 -38 -31 0 -35 -2 -24
-15 8 -9 22 -13 39 -9 23 5 24 4 8 -6 -39 -25 -74 1 -67 50 4 29 46 40 68 18z
m190 -34 c3 -40 3 -41 -30 -40 -45 1 -52 34 -9 42 20 4 28 11 24 20 -3 9 -13
12 -31 7 -18 -4 -23 -3 -18 6 5 7 20 11 34 9 24 -3 27 -8 30 -44z m70 35 c-12
-6 -18 -22 -18 -44 0 -19 -4 -35 -10 -35 -5 0 -10 19 -10 43 0 39 2 43 28 45
23 1 24 0 10 -9z m250 -16 c3 -20 -1 -23 -28 -23 -21 0 -30 -4 -27 -12 2 -7
16 -12 31 -11 14 1 24 -2 21 -8 -9 -13 -49 -11 -63 3 -16 16 -15 51 0 66 21
21 63 10 66 -15z m82 16 c0 -6 -9 -8 -20 -4 -30 9 -25 -14 6 -25 16 -7 24 -16
22 -28 -4 -20 -46 -29 -62 -12 -8 9 -6 11 11 6 31 -10 39 12 9 24 -25 9 -34
29 -19 43 10 11 53 8 53 -4z m86 0 c4 -7 0 -9 -14 -5 -30 10 -37 -12 -8 -24
29 -11 35 -37 10 -47 -8 -3 -25 0 -37 6 -21 11 -21 11 5 6 31 -6 48 12 21 22
-30 10 -42 24 -36 39 6 17 49 19 59 3z m145 -10 c16 -30 -3 -69 -34 -69 -29 0
-47 17 -47 45 0 45 60 63 81 24z m377 9 c23 -23 13 -38 -24 -38 -31 0 -35 -2
-24 -15 8 -10 21 -13 38 -8 17 4 23 2 18 -6 -9 -15 -49 -14 -64 1 -26 26 -7
78 28 78 9 0 21 -5 28 -12z m52 -33 c0 -25 -4 -45 -10 -45 -5 0 -10 20 -10 45
0 25 5 45 10 45 6 0 10 -20 10 -45z m63 35 c-18 -7 -23 -17 -23 -45 0 -19 -4
-35 -10 -35 -5 0 -10 20 -10 45 0 44 1 45 33 44 29 0 30 -1 10 -9z m145 -17
c3 -20 -1 -23 -28 -23 -21 0 -30 -4 -27 -12 2 -7 16 -12 31 -11 14 1 24 -2 21
-8 -4 -5 -17 -9 -31 -9 -32 0 -51 38 -34 69 16 30 64 26 68 -6z m47 10 c6 -17
7 -17 16 0 6 9 14 17 20 17 5 0 4 -9 -3 -20 -10 -16 -10 -24 0 -41 17 -26 7
-39 -11 -15 -12 16 -14 16 -26 2 -8 -9 -18 -16 -24 -16 -5 0 -2 9 8 20 15 17
16 24 7 45 -6 14 -8 25 -3 25 5 0 12 -8 16 -17z m146 -4 c16 -31 -3 -69 -36
-69 -18 0 -25 -5 -25 -20 0 -11 -4 -20 -10 -20 -6 0 -10 28 -10 65 l0 65 35 0
c25 0 37 -6 46 -21z m97 -6 c3 -20 -1 -23 -28 -23 -21 0 -30 -4 -27 -12 2 -7
16 -12 31 -11 14 1 24 -2 21 -8 -4 -5 -17 -9 -31 -9 -32 0 -51 38 -34 69 16
30 64 26 68 -6z m65 12 c-12 -9 -23 -29 -26 -48 -3 -26 -4 -23 -5 13 -2 43 0
46 25 48 28 2 28 2 6 -13z m57 -30 c0 -25 -4 -45 -10 -45 -5 0 -10 20 -10 45
0 25 5 45 10 45 6 0 10 -20 10 -45z m88 33 c23 -23 13 -38 -24 -38 -31 0 -35
-2 -24 -15 8 -9 22 -13 39 -9 23 5 24 4 8 -6 -39 -25 -74 1 -67 50 4 29 46 40
68 18z m100 -35 c2 -26 -1 -43 -7 -43 -6 0 -11 18 -11 41 0 52 -24 48 -28 -4
-4 -52 -22 -46 -22 7 0 42 1 43 33 42 30 -1 32 -3 35 -43z m100 27 c5 -13 3
-13 -11 -1 -14 11 -20 11 -32 1 -19 -16 -19 -34 0 -50 12 -10 19 -10 27 -2 17
17 33 15 18 -3 -26 -31 -72 -12 -72 30 0 15 6 31 13 36 20 13 52 7 57 -11z
m-2365 -56 c7 -7 -2 -34 -12 -34 -4 0 -7 9 -8 20 -2 19 8 26 20 14z m-6765
-91 l3 -72 -67 -3 c-43 -2 -69 -8 -72 -15 -3 -10 17 -13 77 -13 l81 0 0 75 c0
43 4 75 10 75 6 0 10 -35 10 -85 l0 -86 -97 3 -98 3 -3 84 c-2 46 0 91 2 98 4
10 24 13 78 11 l73 -3 3 -72z m308 67 c36 -14 25 -22 -35 -24 -54 -1 -66 9
-28 24 29 12 31 12 63 0z m628 0 c41 -15 30 -26 -24 -24 -51 2 -66 13 -33 25
25 10 28 10 57 -1z m2068 -12 c3 -7 15 -13 29 -13 19 0 23 -5 21 -22 -2 -13 2
-23 7 -23 17 0 13 -27 -5 -34 -13 -5 -14 -9 -5 -20 14 -17 -4 -32 -31 -28 -10
2 -18 -2 -18 -7 0 -6 -7 -11 -15 -11 -8 0 -15 5 -15 11 0 5 -10 9 -22 7 -18
-2 -23 2 -23 21 0 14 -6 26 -13 29 -17 5 -15 29 2 35 9 4 12 14 9 28 -5 19 -3
21 16 16 14 -3 24 0 28 9 6 17 30 19 35 2z m-2400 -65 c4 -78 4 -78 -17 -70
-21 9 -22 137 -1 137 11 0 15 -18 18 -67z m2184 56 c3 -6 1 -16 -5 -22 -9 -9
-14 -8 -21 3 -5 8 -10 18 -10 23 0 11 28 8 36 -4z m-2541 -29 c-3 -5 -1 -10 4
-10 6 0 11 5 11 10 0 6 7 10 16 10 8 0 12 -4 9 -10 -3 -5 -1 -10 4 -10 6 0 11
5 11 12 0 9 3 9 11 1 8 -8 7 -17 -1 -34 -11 -20 -10 -25 9 -37 32 -22 27 -47
-9 -48 -25 -1 -30 3 -30 22 0 13 -4 24 -10 24 -5 0 -10 -10 -10 -22 0 -19 -6
-23 -30 -24 -38 -1 -39 18 -2 44 22 17 25 23 15 33 -16 16 -17 49 -2 49 5 0 7
-4 4 -10z m636 -2 c0 -10 2 -10 6 0 2 6 11 12 19 12 8 0 14 -6 15 -12 0 -10 2
-10 6 0 2 6 9 12 14 12 13 0 11 -34 -3 -48 -9 -9 -5 -17 15 -36 34 -32 34 -45
0 -43 -19 1 -32 10 -40 27 l-12 25 -1 -26 c0 -22 -4 -26 -30 -25 -37 1 -40 26
-7 49 18 12 20 18 10 28 -15 16 -17 49 -3 49 6 0 10 -6 11 -12z m1867 -11 c2
-11 -3 -17 -17 -17 -23 0 -35 15 -26 31 10 15 39 6 43 -14z m-2293 -7 c-3 -5
-13 -10 -21 -10 -9 0 -14 -11 -14 -35 0 -24 -5 -35 -15 -35 -11 0 -15 12 -15
45 0 45 0 45 36 45 21 0 33 -4 29 -10z m35 -25 c0 -24 5 -35 15 -35 10 0 15
11 15 35 0 24 5 35 15 35 11 0 15 -12 15 -46 l0 -45 -37 3 c-37 3 -38 4 -41
46 -2 25 1 42 7 42 6 0 11 -16 11 -35z m198 23 c21 -21 13 -38 -18 -38 -16 0
-30 -5 -30 -11 0 -6 11 -9 25 -7 13 2 25 -1 27 -7 2 -5 -12 -11 -29 -13 -27
-3 -35 1 -44 21 -22 48 33 91 69 55z m91 -3 c-1 -5 -10 -9 -21 -7 -26 5 -22
-7 7 -18 49 -19 22 -59 -30 -46 -34 9 -24 24 12 20 l28 -4 -27 12 c-27 11 -36
36 -21 52 11 10 54 3 52 -9z m2021 -5 c0 -4 -7 -10 -15 -13 -16 -7 -29 8 -20
23 6 10 35 2 35 -10z m-44 -25 c11 -8 14 -15 7 -15 -7 0 -13 -11 -13 -25 0
-21 -5 -25 -30 -25 -17 0 -30 5 -30 13 0 8 -4 7 -11 -3 -7 -12 -9 -8 -7 15 2
20 11 34 28 42 32 16 32 16 56 -2z m73 -32 c14 -11 14 -12 -1 -13 -10 0 -18
-7 -18 -15 0 -8 -4 -15 -10 -15 -5 0 -10 7 -10 15 0 8 -7 15 -16 15 -13 0 -11
5 7 25 15 15 25 20 28 12 2 -7 11 -17 20 -24z m2631 -7 c0 -18 6 -25 23 -28
19 -3 22 -9 23 -48 l2 -45 -7 40 c-8 53 -35 55 -39 3 -5 -66 -22 -41 -22 32 0
40 4 70 10 70 6 0 10 -11 10 -24z m1288 -28 c24 -3 27 -8 30 -45 2 -26 -1 -43
-7 -43 -6 0 -11 18 -11 40 0 59 -33 48 -43 -15 -2 -16 -4 4 -4 45 0 41 2 63 4
48 3 -20 11 -28 31 -30z m900 0 c24 -3 27 -8 30 -45 2 -26 -1 -43 -7 -43 -6 0
-11 18 -11 40 0 59 -33 48 -43 -15 -2 -16 -4 4 -4 45 0 41 2 63 4 48 3 -20 11
-28 31 -30z m245 45 c-7 -2 -13 -13 -13 -24 0 -10 6 -19 13 -20 10 0 10 -2 0
-6 -8 -2 -13 -22 -13 -44 0 -21 -4 -39 -10 -39 -5 0 -10 18 -10 40 0 25 -5 40
-12 41 -10 0 -10 2 0 6 6 2 12 13 12 22 0 22 9 31 29 30 10 0 12 -2 4 -6z
m432 -59 c28 21 42 20 22 -2 -15 -17 -15 -20 -1 -41 9 -12 13 -25 10 -29 -4
-3 -13 4 -22 16 -19 28 -31 28 -37 0 -2 -13 -4 11 -4 52 0 58 1 65 6 32 6 -41
7 -42 26 -28z m285 -2 l0 -69 -32 -1 c-39 -1 -58 13 -58 43 0 29 24 49 50 42
17 -4 20 0 20 24 0 16 5 29 10 29 6 0 10 -29 10 -68z m262 -2 c2 -44 -1 -69
-7 -67 -13 5 -19 137 -6 137 5 0 11 -32 13 -70z m50 0 c2 -44 -1 -69 -7 -67
-13 5 -19 137 -6 137 5 0 11 -32 13 -70z m-4668 44 c9 -8 16 -31 16 -49 0 -43
-22 -65 -66 -65 l-34 0 0 65 0 65 34 0 c19 0 42 -7 50 -16z m56 6 c0 -5 -4
-10 -10 -10 -5 0 -10 5 -10 10 0 6 5 10 10 10 6 0 10 -4 10 -10z m300 0 c0 -5
-4 -10 -10 -10 -5 0 -10 5 -10 10 0 6 5 10 10 10 6 0 10 -4 10 -10z m200 0 c0
-5 -4 -10 -10 -10 -5 0 -10 5 -10 10 0 6 5 10 10 10 6 0 10 -4 10 -10z m310 0
c0 -5 -4 -10 -10 -10 -5 0 -10 5 -10 10 0 6 5 10 10 10 6 0 10 -4 10 -10z
m3280 0 c0 -5 -4 -10 -10 -10 -5 0 -10 5 -10 10 0 6 5 10 10 10 6 0 10 -4 10
-10z m430 0 c0 -5 -4 -10 -10 -10 -5 0 -10 5 -10 10 0 6 5 10 10 10 6 0 10 -4
10 -10z m-3762 -31 c15 -1 15 -2 0 -6 -12 -3 -18 -14 -18 -33 0 -17 7 -33 18
-39 15 -9 15 -10 -5 -11 -20 0 -23 5 -23 40 0 25 -5 40 -12 41 -10 0 -10 2 0
6 6 2 13 12 13 21 1 15 2 15 6 0 2 -10 12 -19 21 -19z m1300 0 c15 -1 15 -2 0
-6 -12 -3 -18 -14 -18 -33 0 -17 7 -33 18 -39 15 -9 15 -10 -5 -11 -20 0 -23
5 -23 40 0 25 -5 40 -12 41 -10 0 -10 2 0 6 6 2 13 12 13 21 1 15 2 15 6 0 2
-10 12 -19 21 -19z m580 0 c15 -1 15 -2 0 -6 -12 -3 -18 -14 -18 -33 0 -17 7
-33 18 -39 15 -9 15 -10 -5 -11 -22 0 -25 5 -37 71 -2 9 1 25 7 35 10 18 12
18 15 2 2 -10 11 -19 20 -19z m-2638 -44 c0 -25 -4 -45 -10 -45 -5 0 -10 20
-10 45 0 25 5 45 10 45 6 0 10 -20 10 -45z m86 34 c4 -7 0 -9 -14 -5 -30 10
-37 -12 -8 -24 29 -11 35 -37 10 -47 -8 -3 -25 0 -37 6 -21 11 -21 11 5 6 31
-6 48 12 21 22 -30 10 -42 24 -36 39 6 17 49 19 59 3z m92 -9 c5 -13 3 -13
-11 -1 -14 11 -20 11 -32 1 -19 -16 -19 -34 0 -50 12 -10 19 -10 27 -2 17 17
33 15 18 -3 -26 -31 -72 -12 -72 30 0 15 6 31 13 36 20 13 52 7 57 -11z m70 9
c-12 -6 -18 -22 -18 -44 0 -19 -4 -35 -10 -35 -5 0 -10 19 -10 43 0 39 2 43
28 45 23 1 24 0 10 -9z m52 -34 c0 -25 -4 -45 -10 -45 -5 0 -10 20 -10 45 0
25 5 45 10 45 6 0 10 -20 10 -45z m148 -2 c2 -26 -1 -43 -7 -43 -6 0 -11 18
-11 41 0 52 -24 48 -28 -4 -4 -48 -20 -48 -24 1 -2 25 -8 37 -18 37 -10 0 -16
-12 -18 -37 -4 -53 -22 -47 -22 7 l0 45 63 -3 62 -2 3 -42z m52 2 c0 -25 -4
-45 -10 -45 -5 0 -10 20 -10 45 0 25 5 45 10 45 6 0 10 -20 10 -45z m92 32
c11 -17 10 -77 -1 -77 -6 0 -11 17 -13 38 -2 25 -8 37 -18 37 -10 0 -16 -12
-18 -37 -4 -53 -22 -48 -22 5 0 43 1 44 32 45 18 0 36 -5 40 -11z m102 -3 c3
-9 6 -28 6 -43 0 -25 -4 -28 -35 -29 -19 -1 -37 3 -40 9 -9 14 14 39 37 39 11
0 18 5 15 13 -2 6 -14 11 -26 10 -13 -2 -20 1 -16 7 10 16 52 12 59 -6z m116
-29 c0 -25 -4 -45 -10 -45 -5 0 -10 20 -10 45 0 25 5 45 10 45 6 0 10 -20 10
-45z m101 24 c16 -30 -3 -69 -34 -69 -29 0 -47 17 -47 45 0 45 60 63 81 24z
m97 -26 c2 -26 -1 -43 -7 -43 -6 0 -11 18 -11 41 0 52 -24 48 -28 -4 -4 -52
-22 -46 -22 7 0 42 1 43 33 42 30 -1 32 -3 35 -43z m290 1 c3 -40 3 -41 -30
-40 -46 1 -52 34 -8 42 38 8 34 30 -4 26 -19 -2 -25 1 -21 8 4 6 19 10 33 8
24 -3 27 -8 30 -44z m75 36 c-18 -7 -23 -17 -23 -45 0 -19 -4 -35 -10 -35 -5
0 -10 20 -10 45 0 44 1 45 33 44 29 0 30 -1 10 -9z m95 -37 c3 -43 3 -43 -31
-43 -37 0 -54 19 -34 39 6 6 19 11 30 11 11 0 17 5 14 13 -2 6 -14 11 -26 10
-14 -2 -20 1 -16 8 4 5 19 9 33 7 24 -3 27 -8 30 -45z m88 36 c4 -7 0 -9 -14
-5 -31 10 -37 -13 -7 -24 17 -7 25 -16 23 -28 -4 -20 -46 -29 -62 -12 -8 10
-5 11 17 6 20 -5 27 -3 27 9 0 8 -6 15 -14 15 -18 0 -39 27 -31 40 8 13 52 13
61 -1z m80 0 c4 -7 0 -9 -14 -5 -33 11 -35 -11 -2 -23 32 -11 37 -20 18 -39
-15 -15 -45 -16 -54 -1 -4 7 0 9 14 5 30 -10 37 12 8 24 -25 9 -34 29 -19 43
10 11 41 8 49 -4z m156 -3 c11 -16 10 -76 -1 -76 -6 0 -11 17 -13 38 -2 25 -8
37 -18 37 -10 0 -16 -12 -18 -37 -2 -21 -7 -38 -12 -38 -5 0 -10 17 -12 38 -2
20 -7 37 -13 37 -5 0 -11 -17 -13 -37 -4 -53 -22 -47 -22 7 l0 44 58 0 c31 -1
60 -6 64 -13z m96 2 c23 -23 13 -38 -24 -38 -31 0 -35 -2 -24 -15 8 -10 21
-13 38 -8 17 4 23 2 18 -6 -9 -15 -49 -14 -64 1 -26 26 -7 78 28 78 9 0 21 -5
28 -12z m106 -4 c9 -24 7 -74 -3 -74 -6 0 -11 17 -13 38 -2 25 -8 37 -18 37
-10 0 -16 -12 -18 -37 -4 -53 -22 -47 -22 7 0 44 0 45 34 45 22 0 36 -6 40
-16z m254 4 c17 -17 15 -53 -3 -68 -8 -7 -25 -10 -40 -6 -24 6 -30 21 -25 56
4 29 46 40 68 18z m75 2 c-18 -7 -23 -17 -23 -45 0 -19 -4 -35 -10 -35 -5 0
-10 20 -10 45 0 44 1 45 33 44 29 0 30 -1 10 -9z m245 -36 c3 -40 3 -41 -30
-40 -45 1 -52 34 -9 42 20 4 28 11 24 20 -3 9 -13 12 -31 7 -18 -4 -23 -3 -18
6 5 7 20 11 34 9 24 -3 27 -8 30 -44z m160 34 c23 -23 13 -38 -24 -38 -31 0
-35 -2 -24 -15 8 -10 21 -13 38 -8 17 4 23 2 18 -6 -9 -15 -49 -14 -64 1 -26
26 -7 78 28 78 9 0 21 -5 28 -12z m132 1 c0 -6 -9 -8 -20 -4 -30 9 -25 -14 6
-25 16 -7 24 -16 22 -28 -4 -20 -46 -29 -62 -12 -8 9 -6 11 11 6 31 -10 39 12
9 24 -25 9 -34 29 -19 43 10 11 53 8 53 -4z m111 -10 c16 -31 -3 -69 -36 -69
-18 0 -25 -5 -25 -20 0 -11 -4 -20 -10 -20 -6 0 -10 28 -10 65 l0 65 35 0 c25
0 37 -6 46 -21z m97 -6 c3 -20 -1 -23 -28 -23 -21 0 -30 -4 -27 -12 2 -7 16
-12 31 -11 14 1 24 -2 21 -8 -9 -13 -49 -11 -63 3 -16 16 -15 51 0 66 21 21
63 10 66 -15z m100 0 c3 -20 -1 -23 -28 -23 -21 0 -30 -4 -27 -12 2 -7 16 -12
31 -11 14 1 24 -2 21 -8 -4 -5 -17 -9 -31 -9 -32 0 -51 38 -34 69 16 30 64 26
68 -6z m100 7 c4 -12 3 -13 -10 -2 -21 17 -48 5 -48 -23 0 -28 27 -40 48 -23
13 11 14 10 10 -2 -2 -8 -17 -16 -31 -18 -35 -4 -55 33 -37 67 13 26 60 26 68
1z m240 8 c17 -17 15 -53 -3 -68 -8 -7 -25 -10 -40 -6 -24 6 -30 21 -25 56 4
29 46 40 68 18z m210 -35 c3 -43 3 -43 -31 -43 -37 0 -54 19 -34 39 6 6 19 11
30 11 11 0 17 5 14 13 -2 6 -14 11 -26 10 -14 -2 -20 1 -16 8 4 5 19 9 33 7
24 -3 27 -8 30 -45z m100 0 c2 -26 -1 -43 -7 -43 -6 0 -11 18 -11 40 0 59 -33
48 -43 -15 -3 -22 -4 -18 -6 16 -1 46 -1 46 32 45 30 -1 32 -3 35 -43z m44 15
l12 -33 13 33 c22 54 32 36 11 -20 -23 -63 -35 -78 -57 -78 -14 1 -14 2 2 11
21 12 22 38 3 84 -9 20 -11 35 -5 35 6 0 15 -15 21 -32z m228 -13 c0 -25 -4
-45 -10 -45 -5 0 -10 20 -10 45 0 25 5 45 10 45 6 0 10 -20 10 -45z m92 32
c11 -17 10 -77 -1 -77 -6 0 -11 17 -13 38 -2 25 -8 37 -18 37 -10 0 -16 -12
-18 -37 -4 -53 -22 -48 -22 5 0 43 1 44 32 45 18 0 36 -5 40 -11z m196 -19
c10 -33 11 -32 27 17 7 25 21 17 32 -17 l11 -33 7 33 c4 17 12 32 17 32 5 0 7
-8 4 -17 -3 -10 -8 -30 -12 -45 -9 -38 -30 -35 -39 5 l-7 32 -11 -33 c-5 -18
-15 -31 -21 -29 -13 4 -38 87 -26 87 5 0 13 -15 18 -32z m142 -13 c0 -25 -4
-45 -10 -45 -5 0 -10 20 -10 45 0 25 5 45 10 45 6 0 10 -20 10 -45z m234 29
c9 -24 7 -74 -3 -74 -6 0 -11 17 -13 38 -2 25 -8 37 -18 37 -10 0 -16 -12 -18
-37 -4 -53 -22 -47 -22 7 0 44 0 45 34 45 22 0 36 -6 40 -16z m96 2 c28 -35
-11 -93 -47 -70 -36 22 -23 84 17 84 10 0 23 -7 30 -14z m-3790 -76 c0 -11 -4
-20 -8 -20 -4 0 -8 9 -9 20 -1 11 2 20 8 20 5 0 9 -9 9 -20z m1050 0 c0 -11
-4 -20 -8 -20 -4 0 -8 9 -9 20 -1 11 2 20 8 20 5 0 9 -9 9 -20z"/>
<path d="M137 5758 c-22 -20 -24 -27 -16 -55 11 -38 26 -43 31 -11 4 30 26 34
30 6 4 -33 22 -25 30 13 5 26 2 36 -15 50 -28 24 -31 23 -60 -3z"/>
<path d="M4278 5693 c7 -3 16 -2 19 1 4 3 -2 6 -13 5 -11 0 -14 -3 -6 -6z"/>
<path d="M4908 5693 c7 -3 16 -2 19 1 4 3 -2 6 -13 5 -11 0 -14 -3 -6 -6z"/>
<path d="M1380 5710 c0 -5 7 -10 15 -10 8 0 15 5 15 10 0 6 -7 10 -15 10 -8 0
-15 -4 -15 -10z"/>
<path d="M1375 5640 c3 -5 15 -10 26 -10 10 0 19 5 19 10 0 6 -12 10 -26 10
-14 0 -23 -4 -19 -10z"/>
<path d="M578 5713 c7 -3 16 -2 19 1 4 3 -2 6 -13 5 -11 0 -14 -3 -6 -6z"/>
<path d="M864 5705 c-7 -18 3 -35 21 -35 15 0 24 19 18 38 -6 17 -32 15 -39
-3z"/>
<path d="M1283 5704 c-8 -21 13 -42 28 -27 13 13 5 43 -11 43 -6 0 -13 -7 -17
-16z"/>
<path d="M1488 5713 c7 -3 16 -2 19 1 4 3 -2 6 -13 5 -11 0 -14 -3 -6 -6z"/>
<path d="M1768 5713 c7 -3 16 -2 19 1 4 3 -2 6 -13 5 -11 0 -14 -3 -6 -6z"/>
<path d="M4658 5713 c6 -2 18 -2 25 0 6 3 1 5 -13 5 -14 0 -19 -2 -12 -5z"/>
<path d="M3796 5161 c-4 -5 -9 -29 -12 -53 -9 -65 32 -101 70 -62 21 20 21 73
1 80 -11 5 -13 10 -5 19 5 6 7 15 3 18 -10 10 -51 8 -57 -2z"/>
<path d="M5510 5220 c0 -5 5 -10 10 -10 6 0 10 5 10 10 0 6 -4 10 -10 10 -5 0
-10 -4 -10 -10z"/>
<path d="M5600 5220 c0 -5 7 -10 15 -10 8 0 15 5 15 10 0 6 -7 10 -15 10 -8 0
-15 -4 -15 -10z"/>
<path d="M4530 5160 c-13 -8 -12 -10 3 -10 9 0 17 5 17 10 0 12 -1 12 -20 0z"/>
<path d="M4620 5175 c0 -20 4 -26 18 -23 9 2 17 12 17 23 0 11 -8 21 -17 23
-14 3 -18 -3 -18 -23z"/>
<path d="M4720 5175 c0 -18 5 -25 20 -25 15 0 20 7 20 25 0 18 -5 25 -20 25
-15 0 -20 -7 -20 -25z"/>
<path d="M5058 5193 c7 -3 16 -2 19 1 4 3 -2 6 -13 5 -11 0 -14 -3 -6 -6z"/>
<path d="M4640 4960 c0 -15 5 -20 18 -18 9 2 17 10 17 18 0 8 -8 16 -17 18
-13 2 -18 -3 -18 -18z"/>
<path d="M5010 4960 c0 -15 5 -20 18 -18 9 2 17 10 17 18 0 8 -8 16 -17 18
-13 2 -18 -3 -18 -18z"/>
<path d="M5180 4960 c0 -15 5 -20 18 -18 9 2 17 10 17 18 0 8 -8 16 -17 18
-13 2 -18 -3 -18 -18z"/>
<path d="M4420 4430 c0 -15 5 -20 18 -18 9 2 17 10 17 18 0 8 -8 16 -17 18
-13 2 -18 -3 -18 -18z"/>
<path d="M4610 4120 c0 -15 5 -20 18 -18 9 2 17 10 17 18 0 8 -8 16 -17 18
-13 2 -18 -3 -18 -18z"/>
<path d="M6370 4115 c0 -20 4 -26 18 -23 9 2 17 12 17 23 0 11 -8 21 -17 23
-14 3 -18 -3 -18 -23z"/>
<path d="M4914 4086 c-4 -10 -2 -22 4 -28 8 -8 13 -7 18 6 4 10 2 22 -4 28 -8
8 -13 7 -18 -6z"/>
<path d="M6567 4087 c-3 -8 -1 -20 4 -28 11 -19 34 3 26 25 -8 20 -23 21 -30
3z"/>
<path d="M6674 4086 c-4 -10 -2 -22 4 -28 8 -8 13 -7 18 6 4 10 2 22 -4 28 -8
8 -13 7 -18 -6z"/>
<path d="M6401 3782 c-13 -25 11 -63 29 -46 14 14 9 56 -7 61 -6 2 -16 -4 -22
-15z"/>
<path d="M4450 3785 c0 -47 3 -55 19 -55 24 0 44 24 44 55 0 31 -20 55 -44 55
-16 0 -19 -8 -19 -55z"/>
<path d="M6034 3789 c-10 -17 13 -36 27 -22 12 12 4 33 -11 33 -5 0 -12 -5
-16 -11z"/>
<path d="M6033 3708 c2 -7 12 -13 22 -13 10 0 20 6 23 13 2 7 -6 12 -23 12
-17 0 -25 -5 -22 -12z"/>
<path d="M4577 3793 c-10 -10 -8 -51 2 -57 5 -4 16 -3 25 0 21 8 21 50 0 58
-19 7 -19 7 -27 -1z"/>
<path d="M4820 3784 c-10 -11 -11 -20 -3 -32 17 -27 38 -20 38 12 0 34 -16 44
-35 20z"/>
<path d="M5231 3751 c-9 -6 -10 -11 -2 -15 13 -8 31 1 31 15 0 11 -11 11 -29
0z"/>
<path d="M5397 3794 c-13 -13 -7 -24 14 -24 11 0 19 5 17 12 -5 14 -22 21 -31
12z"/>
<path d="M5624 3786 c-10 -26 0 -51 21 -51 16 0 20 7 20 30 0 33 -30 49 -41
21z"/>
<path d="M5737 3793 c-11 -11 -8 -51 5 -59 18 -11 39 25 27 47 -10 20 -21 24
-32 12z"/>
<path d="M6307 3794 c-13 -13 -7 -24 14 -24 11 0 19 5 17 12 -5 14 -22 21 -31
12z"/>
<path d="M6711 3751 c-9 -6 -10 -11 -2 -15 13 -8 31 1 31 15 0 11 -11 11 -29
0z"/>
<path d="M6877 3794 c-13 -13 -7 -24 14 -24 11 0 19 5 17 12 -5 14 -22 21 -31
12z"/>
<path d="M7091 3751 c-9 -6 -10 -11 -2 -15 13 -8 31 1 31 15 0 11 -11 11 -29
0z"/>
<path d="M7630 3784 c-10 -11 -11 -20 -3 -32 17 -27 38 -20 38 12 0 34 -16 44
-35 20z"/>
<path d="M7957 3793 c-11 -11 -8 -51 5 -59 18 -11 39 25 27 47 -10 20 -21 24
-32 12z"/>
<path d="M8057 3793 c-14 -13 -6 -23 19 -23 22 0 25 2 14 15 -14 16 -23 19
-33 8z"/>
<path d="M8634 3786 c-10 -26 0 -51 21 -51 16 0 20 7 20 30 0 33 -30 49 -41
21z"/>
<path d="M9197 3794 c-13 -13 -7 -24 14 -24 11 0 19 5 17 12 -5 14 -22 21 -31
12z"/>
<path d="M6965 3520 c-4 -6 -3 -16 3 -22 6 -6 12 -6 17 2 4 6 3 16 -3 22 -6 6
-12 6 -17 -2z"/>
<path d="M6953 3438 c2 -7 12 -13 22 -13 10 0 20 6 23 13 2 7 -6 12 -23 12
-17 0 -25 -5 -22 -12z"/>
<path d="M4417 3523 c-11 -11 -8 -51 5 -59 18 -11 39 25 27 47 -10 20 -21 24
-32 12z"/>
<path d="M4580 3514 c-10 -11 -11 -20 -3 -32 17 -27 38 -20 38 12 0 34 -16 44
-35 20z"/>
<path d="M4687 3523 c-10 -10 -8 -51 2 -57 5 -4 16 -3 25 0 21 8 21 50 0 58
-19 7 -19 7 -27 -1z"/>
<path d="M4787 3523 c-14 -13 -6 -23 18 -23 28 0 34 15 9 24 -19 7 -19 7 -27
-1z"/>
<path d="M5087 3523 c-10 -10 -8 -51 2 -57 5 -4 16 -3 25 0 21 8 21 50 0 58
-19 7 -19 7 -27 -1z"/>
<path d="M5457 3524 c-13 -13 -7 -24 14 -24 11 0 19 5 17 12 -5 14 -22 21 -31
12z"/>
<path d="M6120 3514 c-10 -11 -11 -20 -3 -32 17 -27 38 -20 38 12 0 34 -16 44
-35 20z"/>
<path d="M6427 3523 c-10 -10 -8 -51 2 -57 5 -4 16 -3 25 0 21 8 21 50 0 58
-19 7 -19 7 -27 -1z"/>
<path d="M6741 3512 c-7 -14 -6 -24 4 -38 13 -18 15 -18 32 -1 13 13 15 21 7
34 -16 25 -31 27 -43 5z"/>
<path d="M7205 3479 c-4 -6 -5 -12 -2 -15 7 -7 37 7 37 17 0 13 -27 11 -35 -2z"/>
<path d="M7527 3523 c-10 -10 -8 -51 2 -57 5 -4 16 -3 25 0 21 8 21 50 0 58
-19 7 -19 7 -27 -1z"/>
<path d="M4904 2936 c-4 -10 -2 -22 4 -28 8 -8 13 -7 18 6 4 10 2 22 -4 28 -8
8 -13 7 -18 -6z"/>
<path d="M5174 2936 c-4 -10 -2 -22 4 -28 8 -8 13 -7 18 6 4 10 2 22 -4 28 -8
8 -13 7 -18 -6z"/>
<path d="M6210 2624 c-10 -11 -11 -20 -3 -32 17 -27 38 -20 38 12 0 34 -16 44
-35 20z"/>
<path d="M7277 2633 c-10 -10 -8 -51 2 -57 5 -4 16 -3 25 0 21 8 21 50 0 58
-19 7 -19 7 -27 -1z"/>
<path d="M5444 2629 c-10 -17 13 -36 27 -22 12 12 4 33 -11 33 -5 0 -12 -5
-16 -11z"/>
<path d="M5443 2548 c2 -7 12 -13 22 -13 10 0 20 6 23 13 2 7 -6 12 -23 12
-17 0 -25 -5 -22 -12z"/>
<path d="M4707 2633 c-14 -13 -6 -23 18 -23 28 0 34 15 9 24 -19 7 -19 7 -27
-1z"/>
<path d="M5057 2634 c-13 -13 -7 -24 14 -24 11 0 19 5 17 12 -5 14 -22 21 -31
12z"/>
<path d="M5207 2633 c-11 -11 -8 -51 5 -59 18 -11 39 25 27 47 -10 20 -21 24
-32 12z"/>
<path d="M5584 2626 c-10 -26 0 -51 21 -51 16 0 20 7 20 30 0 33 -30 49 -41
21z"/>
<path d="M5867 2633 c-14 -13 -6 -23 19 -23 22 0 25 2 14 15 -14 16 -23 19
-33 8z"/>
<path d="M6317 2634 c-13 -13 -7 -24 14 -24 11 0 19 5 17 12 -5 14 -22 21 -31
12z"/>
<path d="M6457 2634 c-11 -11 -8 -52 4 -60 6 -3 18 1 27 10 13 12 14 21 6 33
-12 20 -27 26 -37 17z"/>
<path d="M6561 2591 c-9 -6 -10 -11 -2 -15 13 -8 31 1 31 15 0 11 -11 11 -29
0z"/>
<path d="M6767 2633 c-14 -13 -6 -23 19 -23 22 0 25 2 14 15 -14 16 -23 19
-33 8z"/>
<path d="M7081 2591 c-9 -6 -10 -11 -2 -15 13 -8 31 1 31 15 0 11 -11 11 -29
0z"/>
<path d="M7514 2626 c-10 -26 0 -51 21 -51 16 0 20 7 20 30 0 33 -30 49 -41
21z"/>
<path d="M8357 2634 c-13 -13 -7 -24 14 -24 11 0 19 5 17 12 -5 14 -22 21 -31
12z"/>
<path d="M8737 2634 c-11 -11 -8 -52 4 -60 6 -3 18 1 27 10 13 12 14 21 6 33
-12 20 -27 26 -37 17z"/>
<path d="M8891 2591 c-9 -6 -10 -11 -2 -15 13 -8 31 1 31 15 0 11 -11 11 -29
0z"/>
<path d="M9267 2633 c-10 -10 -8 -51 2 -57 5 -4 16 -3 25 0 21 8 21 50 0 58
-19 7 -19 7 -27 -1z"/>
<path d="M4413 2373 c-19 -7 -16 -50 4 -57 22 -9 35 6 31 35 -3 24 -15 31 -35
22z"/>
<path d="M5803 2373 c-19 -7 -16 -50 4 -57 22 -9 35 6 31 35 -3 24 -15 31 -35
22z"/>
<path d="M6380 2364 c-10 -11 -11 -20 -3 -32 17 -27 38 -20 38 12 0 34 -16 44
-35 20z"/>
<path d="M8210 2364 c-10 -11 -11 -20 -3 -32 17 -27 38 -20 38 12 0 34 -16 44
-35 20z"/>
<path d="M7580 2395 c0 -23 4 -26 28 -23 19 2 27 9 27 23 0 14 -8 21 -27 23
-24 3 -28 0 -28 -23z"/>
<path d="M6635 2370 c-4 -6 -3 -16 3 -22 6 -6 12 -6 17 2 4 6 3 16 -3 22 -6 6
-12 6 -17 -2z"/>
<path d="M6623 2288 c2 -7 12 -13 22 -13 10 0 20 6 23 13 2 7 -6 12 -23 12
-17 0 -25 -5 -22 -12z"/>
<path d="M7014 2369 c-10 -17 13 -36 27 -22 12 12 4 33 -11 33 -5 0 -12 -5
-16 -11z"/>
<path d="M7013 2288 c2 -7 12 -13 22 -13 10 0 20 6 23 13 2 7 -6 12 -23 12
-17 0 -25 -5 -22 -12z"/>
<path d="M7304 2369 c-10 -17 13 -36 27 -22 12 12 4 33 -11 33 -5 0 -12 -5
-16 -11z"/>
<path d="M7303 2288 c2 -7 12 -13 22 -13 10 0 20 6 23 13 2 7 -6 12 -23 12
-17 0 -25 -5 -22 -12z"/>
<path d="M5147 2373 c-14 -13 -6 -23 19 -23 22 0 25 2 14 15 -14 16 -23 19
-33 8z"/>
<path d="M5287 2373 c-10 -10 -8 -51 2 -57 5 -4 16 -3 25 0 21 8 21 50 0 58
-19 7 -19 7 -27 -1z"/>
<path d="M5597 2373 c-10 -10 -8 -51 2 -57 5 -4 16 -3 25 0 21 8 21 50 0 58
-19 7 -19 7 -27 -1z"/>
<path d="M5907 2373 c-14 -13 -6 -23 19 -23 22 0 25 2 14 15 -14 16 -23 19
-33 8z"/>
<path d="M6187 2374 c-13 -13 -7 -24 14 -24 11 0 19 5 17 12 -5 14 -22 21 -31
12z"/>
<path d="M6821 2331 c-9 -6 -10 -11 -2 -15 13 -8 31 1 31 15 0 11 -11 11 -29
0z"/>
<path d="M7215 2329 c-4 -6 -5 -12 -2 -15 7 -7 37 7 37 17 0 13 -27 11 -35 -2z"/>
<path d="M7407 2374 c-13 -13 -7 -24 14 -24 11 0 19 5 17 12 -5 14 -22 21 -31
12z"/>
<path d="M7707 2374 c-13 -13 -7 -24 14 -24 11 0 19 5 17 12 -5 14 -22 21 -31
12z"/>
<path d="M7957 2374 c-13 -13 -7 -24 14 -24 11 0 19 5 17 12 -5 14 -22 21 -31
12z"/>
<path d="M8317 2374 c-13 -13 -7 -24 14 -24 11 0 19 5 17 12 -5 14 -22 21 -31
12z"/>
<path d="M8547 2373 c-14 -13 -6 -23 18 -23 28 0 34 15 9 24 -19 7 -19 7 -27
-1z"/>
<path d="M8727 2373 c-14 -13 -6 -23 18 -23 28 0 34 15 9 24 -19 7 -19 7 -27
-1z"/>
<path d="M8987 2373 c-10 -10 -8 -51 2 -57 5 -4 16 -3 25 0 21 8 21 50 0 58
-19 7 -19 7 -27 -1z"/>
<path d="M9187 2373 c-14 -13 -6 -23 18 -23 28 0 34 15 9 24 -19 7 -19 7 -27
-1z"/>
<path d="M7777 1843 c-10 -10 -8 -51 2 -57 5 -4 16 -3 25 0 21 8 21 50 0 58
-19 7 -19 7 -27 -1z"/>
<path d="M6440 1855 c0 -20 4 -26 18 -23 9 2 17 12 17 23 0 11 -8 21 -17 23
-14 3 -18 -3 -18 -23z"/>
<path d="M7442 1845 c-10 -22 -9 -25 8 -25 21 0 26 16 12 38 -6 9 -12 6 -20
-13z"/>
<path d="M5650 1830 c0 -5 5 -10 10 -10 6 0 10 5 10 10 0 6 -4 10 -10 10 -5 0
-10 -4 -10 -10z"/>
<path d="M5640 1760 c0 -5 7 -10 15 -10 8 0 15 5 15 10 0 6 -7 10 -15 10 -8 0
-15 -4 -15 -10z"/>
<path d="M4714 1826 c-4 -10 -2 -22 4 -28 8 -8 13 -7 18 6 4 10 2 22 -4 28 -8
8 -13 7 -18 -6z"/>
<path d="M4974 1826 c-4 -10 -2 -22 4 -28 8 -8 13 -7 18 6 4 10 2 22 -4 28 -8
8 -13 7 -18 -6z"/>
<path d="M5794 1826 c-4 -10 -2 -22 4 -28 8 -8 13 -7 18 6 4 10 2 22 -4 28 -8
8 -13 7 -18 -6z"/>
<path d="M6634 1826 c-4 -10 -2 -22 4 -28 8 -8 13 -7 18 6 4 10 2 22 -4 28 -8
8 -13 7 -18 -6z"/>
<path d="M6897 1827 c-3 -8 -1 -20 4 -28 11 -19 34 3 26 25 -8 20 -23 21 -30
3z"/>
<path d="M7127 1827 c-3 -8 -1 -20 4 -28 11 -19 34 3 26 25 -8 20 -23 21 -30
3z"/>
<path d="M7630 1834 c-10 -11 -11 -20 -3 -32 17 -27 38 -20 38 12 0 34 -16 44
-35 20z"/>
<path d="M7927 1843 c-14 -13 -6 -23 19 -23 22 0 25 2 14 15 -14 16 -23 19
-33 8z"/>
<path d="M8207 1844 c-13 -13 -7 -24 14 -24 11 0 19 5 17 12 -5 14 -22 21 -31
12z"/>
<path d="M8597 1843 c-14 -13 -6 -23 18 -23 28 0 34 15 9 24 -19 7 -19 7 -27
-1z"/>
<path d="M8827 1844 c-13 -13 -7 -24 14 -24 11 0 19 5 17 12 -5 14 -22 21 -31
12z"/>
<path d="M9117 1844 c-11 -11 -8 -52 4 -60 6 -3 18 1 27 10 13 12 14 21 6 33
-12 20 -27 26 -37 17z"/>
<path d="M9287 1843 c-10 -10 -8 -51 2 -57 5 -4 16 -3 25 0 21 8 21 50 0 58
-19 7 -19 7 -27 -1z"/>
<path d="M8200 1574 c-10 -11 -11 -20 -3 -32 17 -27 38 -20 38 12 0 34 -16 44
-35 20z"/>
<path d="M8997 1583 c-10 -10 -8 -51 2 -57 5 -4 16 -3 25 0 21 8 21 50 0 58
-19 7 -19 7 -27 -1z"/>
<path d="M5155 1580 c-4 -6 -3 -16 3 -22 6 -6 12 -6 17 2 4 6 3 16 -3 22 -6 6
-12 6 -17 -2z"/>
<path d="M5143 1498 c2 -7 12 -13 22 -13 10 0 20 6 23 13 2 7 -6 12 -23 12
-17 0 -25 -5 -22 -12z"/>
<path d="M8535 1580 c-4 -6 -3 -16 3 -22 6 -6 12 -6 17 2 4 6 3 16 -3 22 -6 6
-12 6 -17 -2z"/>
<path d="M8523 1498 c2 -7 12 -13 22 -13 10 0 20 6 23 13 2 7 -6 12 -23 12
-17 0 -25 -5 -22 -12z"/>
<path d="M4497 1583 c-10 -10 -8 -51 2 -57 5 -4 16 -3 25 0 21 8 21 50 0 58
-19 7 -19 7 -27 -1z"/>
<path d="M4601 1541 c-9 -6 -10 -11 -2 -15 13 -8 31 1 31 15 0 11 -11 11 -29
0z"/>
<path d="M5551 1541 c-9 -6 -10 -11 -2 -15 13 -8 31 1 31 15 0 11 -11 11 -29
0z"/>
<path d="M5717 1584 c-13 -13 -7 -24 14 -24 11 0 19 5 17 12 -5 14 -22 21 -31
12z"/>
<path d="M5934 1576 c-10 -26 0 -51 21 -51 16 0 20 7 20 30 0 33 -30 49 -41
21z"/>
<path d="M6390 1574 c-10 -11 -11 -20 -3 -32 17 -27 38 -20 38 12 0 34 -16 44
-35 20z"/>
<path d="M6700 1574 c-10 -11 -11 -20 -3 -32 17 -27 38 -20 38 12 0 34 -16 44
-35 20z"/>
<path d="M7007 1584 c-13 -13 -7 -24 14 -24 11 0 19 5 17 12 -5 14 -22 21 -31
12z"/>
<path d="M7407 1584 c-13 -13 -7 -24 14 -24 11 0 19 5 17 12 -5 14 -22 21 -31
12z"/>
<path d="M7624 1576 c-10 -26 0 -51 21 -51 16 0 20 7 20 30 0 33 -30 49 -41
21z"/>
<path d="M8307 1583 c-14 -13 -6 -23 19 -23 22 0 25 2 14 15 -14 16 -23 19
-33 8z"/>
<path d="M8735 1539 c-4 -6 -5 -12 -2 -15 7 -7 37 7 37 17 0 13 -27 11 -35 -2z"/>
<path d="M8897 1583 c-14 -13 -6 -23 19 -23 22 0 25 2 14 15 -14 16 -23 19
-33 8z"/>
<path d="M9351 1541 c-9 -6 -10 -11 -2 -15 13 -8 31 1 31 15 0 11 -11 11 -29
0z"/>
<path d="M4411 1271 c-9 -6 -10 -11 -2 -15 13 -8 31 1 31 15 0 11 -11 11 -29
0z"/>
<path d="M4510 1304 c-10 -11 -11 -20 -3 -32 17 -27 38 -20 38 12 0 34 -16 44
-35 20z"/>
<path d="M4617 1314 c-11 -11 -8 -52 4 -60 6 -3 18 1 27 10 13 12 14 21 6 33
-12 20 -27 26 -37 17z"/>
<path d="M4787 1313 c-10 -10 -8 -51 2 -57 5 -4 16 -3 25 0 21 8 21 50 0 58
-19 7 -19 7 -27 -1z"/>
<path d="M4975 1269 c-4 -6 -5 -12 -2 -15 7 -7 37 7 37 17 0 13 -27 11 -35 -2z"/>
<path d="M6044 726 c-4 -10 -2 -22 4 -28 8 -8 13 -7 18 6 4 10 2 22 -4 28 -8
8 -13 7 -18 -6z"/>
<path d="M4406 735 c-3 -8 -1 -15 4 -15 6 0 10 7 10 15 0 8 -2 15 -4 15 -2 0
-6 -7 -10 -15z"/>
<path d="M4610 760 c0 -5 7 -10 15 -10 8 0 15 5 15 10 0 6 -7 10 -15 10 -8 0
-15 -4 -15 -10z"/>
<path d="M4610 710 c0 -5 9 -10 21 -10 11 0 17 5 14 10 -3 6 -13 10 -21 10 -8
0 -14 -4 -14 -10z"/>
<path d="M4870 760 c0 -15 5 -20 18 -18 9 2 17 10 17 18 0 8 -8 16 -17 18 -13
2 -18 -3 -18 -18z"/>
<path d="M5187 734 c-11 -11 -8 -44 3 -44 15 0 24 30 13 41 -5 5 -12 6 -16 3z"/>
<path d="M5557 433 c-10 -10 -8 -51 2 -57 5 -4 16 -3 25 0 21 8 21 50 0 58
-19 7 -19 7 -27 -1z"/>
<path d="M7497 433 c-10 -10 -8 -51 2 -57 5 -4 16 -3 25 0 21 8 21 50 0 58
-19 7 -19 7 -27 -1z"/>
<path d="M7234 429 c-10 -17 13 -36 27 -22 12 12 4 33 -11 33 -5 0 -12 -5 -16
-11z"/>
<path d="M7233 348 c2 -7 12 -13 22 -13 10 0 20 6 23 13 2 7 -6 12 -23 12 -17
0 -25 -5 -22 -12z"/>
<path d="M4607 434 c-13 -13 -7 -24 14 -24 11 0 19 5 17 12 -5 14 -22 21 -31
12z"/>
<path d="M4701 391 c-9 -6 -10 -11 -2 -15 13 -8 31 1 31 15 0 11 -11 11 -29 0z"/>
<path d="M4911 391 c-9 -6 -10 -11 -2 -15 13 -8 31 1 31 15 0 11 -11 11 -29 0z"/>
<path d="M5307 434 c-13 -13 -7 -24 14 -24 11 0 19 5 17 12 -5 14 -22 21 -31
12z"/>
<path d="M5667 434 c-13 -13 -7 -24 14 -24 11 0 19 5 17 12 -5 14 -22 21 -31
12z"/>
<path d="M6427 434 c-13 -13 -7 -24 14 -24 11 0 19 5 17 12 -5 14 -22 21 -31
12z"/>
<path d="M6617 433 c-11 -11 -8 -51 5 -59 18 -11 39 25 27 47 -10 20 -21 24
-32 12z"/>
<path d="M6717 434 c-13 -13 -7 -24 14 -24 11 0 19 5 17 12 -5 14 -22 21 -31
12z"/>
<path d="M7147 434 c-13 -13 -7 -24 14 -24 11 0 19 5 17 12 -5 14 -22 21 -31
12z"/>
<path d="M7335 389 c-4 -6 -5 -12 -2 -15 7 -7 37 7 37 17 0 13 -27 11 -35 -2z"/>
<path d="M7647 433 c-14 -13 -6 -23 19 -23 22 0 25 2 14 15 -14 16 -23 19 -33
8z"/>
<path d="M7957 433 c-10 -10 -8 -51 2 -57 5 -4 16 -3 25 0 21 8 21 50 0 58
-19 7 -19 7 -27 -1z"/>
<path d="M8347 434 c-13 -13 -7 -24 14 -24 11 0 19 5 17 12 -5 14 -22 21 -31
12z"/>
<path d="M8597 433 c-14 -13 -6 -23 18 -23 28 0 34 15 9 24 -19 7 -19 7 -27
-1z"/>
<path d="M8787 434 c-11 -11 -8 -52 4 -60 6 -3 18 1 27 10 13 12 14 21 6 33
-12 20 -27 26 -37 17z"/>
<path d="M8887 433 c-14 -13 -6 -23 18 -23 28 0 34 15 9 24 -19 7 -19 7 -27
-1z"/>
<path d="M9107 434 c-13 -13 -7 -24 14 -24 11 0 19 5 17 12 -5 14 -22 21 -31
12z"/>
<path d="M152 298 c-18 -18 -23 -19 -37 -8 -25 21 -31 2 -7 -23 l22 -22 31 31
c17 18 27 34 22 37 -5 3 -19 -4 -31 -15z"/>
<path d="M3177 277 c-3 -8 1 -23 8 -34 11 -14 18 -16 32 -7 28 17 23 48 -8 52
-16 2 -29 -3 -32 -11z"/>
<path d="M488 243 c7 -3 16 -2 19 1 4 3 -2 6 -13 5 -11 0 -14 -3 -6 -6z"/>
<path d="M1118 243 c7 -3 16 -2 19 1 4 3 -2 6 -13 5 -11 0 -14 -3 -6 -6z"/>
<path d="M868 263 c6 -2 18 -2 25 0 6 3 1 5 -13 5 -14 0 -19 -2 -12 -5z"/>
<path d="M8767 163 c-10 -10 -8 -51 2 -57 5 -4 16 -3 25 0 21 8 21 50 0 58
-19 7 -19 7 -27 -1z"/>
<path d="M4410 155 c0 -47 3 -55 19 -55 24 0 44 24 44 55 0 31 -20 55 -44 55
-16 0 -19 -8 -19 -55z"/>
<path d="M5181 121 c-9 -6 -10 -11 -2 -15 13 -8 31 1 31 15 0 11 -11 11 -29 0z"/>
<path d="M5387 163 c-10 -10 -8 -51 2 -57 5 -4 16 -3 25 0 21 8 21 50 0 58
-19 7 -19 7 -27 -1z"/>
<path d="M5785 119 c-4 -6 -5 -12 -2 -15 7 -7 37 7 37 17 0 13 -27 11 -35 -2z"/>
<path d="M5951 121 c-9 -6 -10 -11 -2 -15 13 -8 31 1 31 15 0 11 -11 11 -29 0z"/>
<path d="M6377 164 c-13 -13 -7 -24 14 -24 11 0 19 5 17 12 -5 14 -22 21 -31
12z"/>
<path d="M6730 154 c-10 -11 -11 -20 -3 -32 17 -27 38 -20 38 12 0 34 -16 44
-35 20z"/>
<path d="M7055 119 c-4 -6 -5 -12 -2 -15 7 -7 37 7 37 17 0 13 -27 11 -35 -2z"/>
<path d="M7217 164 c-13 -13 -7 -24 14 -24 11 0 19 5 17 12 -5 14 -22 21 -31
12z"/>
<path d="M7447 164 c-11 -11 -8 -52 4 -60 6 -3 18 1 27 10 13 12 14 21 6 33
-12 20 -27 26 -37 17z"/>
<path d="M7547 163 c-14 -13 -6 -23 19 -23 22 0 25 2 14 15 -14 16 -23 19 -33
8z"/>
<path d="M7647 163 c-14 -13 -6 -23 18 -23 28 0 34 15 9 24 -19 7 -19 7 -27
-1z"/>
<path d="M7990 154 c-10 -11 -11 -20 -3 -32 17 -27 38 -20 38 12 0 34 -16 44
-35 20z"/>
<path d="M8201 121 c-9 -6 -10 -11 -2 -15 13 -8 31 1 31 15 0 11 -11 11 -29 0z"/>
<path d="M9331 152 c-7 -14 -6 -24 4 -38 13 -18 15 -18 32 -1 13 13 15 21 7
34 -16 25 -31 27 -43 5z"/>
<path d="M9425 3790 c-3 -5 -1 -10 4 -10 6 0 11 5 11 10 0 6 -2 10 -4 10 -3 0
-8 -4 -11 -10z"/>
<path d="M9397 434 c-13 -13 -7 -24 14 -24 11 0 19 5 17 12 -5 14 -22 21 -31
12z"/>
<path d="M9391 385 c9 -9 23 -13 32 -9 28 10 19 24 -15 24 -29 0 -31 -2 -17
-15z"/>
</g>
</svg>
